%TF.GenerationSoftware,KiCad,Pcbnew,7.0.7*%
%TF.CreationDate,2024-09-30T16:59:32+02:00*%
%TF.ProjectId,control_motor_pcb,636f6e74-726f-46c5-9f6d-6f746f725f70,rev?*%
%TF.SameCoordinates,Original*%
%TF.FileFunction,Copper,L3,Inr*%
%TF.FilePolarity,Positive*%
%FSLAX46Y46*%
G04 Gerber Fmt 4.6, Leading zero omitted, Abs format (unit mm)*
G04 Created by KiCad (PCBNEW 7.0.7) date 2024-09-30 16:59:32*
%MOMM*%
%LPD*%
G01*
G04 APERTURE LIST*
%TA.AperFunction,ComponentPad*%
%ADD10C,0.800000*%
%TD*%
%TA.AperFunction,ComponentPad*%
%ADD11C,6.400000*%
%TD*%
%TA.AperFunction,ComponentPad*%
%ADD12R,2.600000X2.600000*%
%TD*%
%TA.AperFunction,ComponentPad*%
%ADD13C,2.400000*%
%TD*%
%TA.AperFunction,ViaPad*%
%ADD14C,0.700000*%
%TD*%
%TA.AperFunction,ViaPad*%
%ADD15C,0.900000*%
%TD*%
G04 APERTURE END LIST*
D10*
%TO.N,GND*%
%TO.C,H1*%
X233025000Y-48425000D03*
X233727944Y-46727944D03*
X233727944Y-50122056D03*
X235425000Y-46025000D03*
D11*
X235425000Y-48425000D03*
D10*
X235425000Y-50825000D03*
X237122056Y-46727944D03*
X237122056Y-50122056D03*
X237825000Y-48425000D03*
%TD*%
D12*
%TO.N,GND*%
%TO.C,J1*%
X217600000Y-46620000D03*
%TD*%
D13*
%TO.N,GND*%
%TO.C,C3*%
X107150000Y-65087755D03*
%TD*%
D10*
%TO.N,GND*%
%TO.C,H3*%
X232940000Y-78062056D03*
X233642944Y-76365000D03*
X233642944Y-79759112D03*
X235340000Y-75662056D03*
D11*
X235340000Y-78062056D03*
D10*
X235340000Y-80462056D03*
X237037056Y-76365000D03*
X237037056Y-79759112D03*
X237740000Y-78062056D03*
%TD*%
%TO.N,GND*%
%TO.C,H2*%
X53870000Y-48425000D03*
X54572944Y-46727944D03*
X54572944Y-50122056D03*
X56270000Y-46025000D03*
D11*
X56270000Y-48425000D03*
D10*
X56270000Y-50825000D03*
X57967056Y-46727944D03*
X57967056Y-50122056D03*
X58670000Y-48425000D03*
%TD*%
D13*
%TO.N,GND*%
%TO.C,C4*%
X88026648Y-64965424D03*
%TD*%
D14*
%TO.N,GND*%
X116517739Y-57818122D03*
X177775000Y-83000000D03*
D15*
X71125000Y-49250000D03*
D14*
X69750000Y-97035000D03*
D15*
X163395979Y-107727160D03*
X104252698Y-57810507D03*
D14*
X154060000Y-57295000D03*
X212725000Y-84475000D03*
X181153728Y-106801961D03*
D15*
X87925000Y-47850000D03*
X76700000Y-49275000D03*
D14*
X98325000Y-61650000D03*
D15*
X99052698Y-57910507D03*
X93377698Y-47835507D03*
D14*
X217061729Y-109054500D03*
X206250000Y-105000000D03*
D15*
X89575000Y-47850000D03*
X104252698Y-56060507D03*
D14*
X97075000Y-61650000D03*
X211475000Y-84475000D03*
D15*
X95300000Y-57825000D03*
X228300000Y-45782809D03*
D14*
X99000000Y-109000000D03*
D15*
X83925000Y-46125000D03*
D14*
X116750000Y-104750000D03*
X240437214Y-106825568D03*
D15*
X72816840Y-107598216D03*
D14*
X174050000Y-86525000D03*
X104000000Y-98250000D03*
X59500000Y-53625000D03*
D15*
X74775000Y-49200000D03*
X95300000Y-56075000D03*
X80425000Y-49500000D03*
D14*
X179025000Y-81500000D03*
X181125000Y-63225000D03*
X181500000Y-78050000D03*
X232320000Y-106845000D03*
X196760000Y-106845000D03*
D15*
X133860000Y-84259285D03*
D14*
X93122405Y-108551960D03*
D15*
X99052698Y-56160507D03*
X102502698Y-56060507D03*
D14*
X141750000Y-99000000D03*
X97050000Y-63050000D03*
X178250000Y-98000000D03*
D15*
X72975000Y-47575000D03*
D14*
X143420000Y-106845000D03*
X198510000Y-106845000D03*
D15*
X228300000Y-43532809D03*
D14*
X145170000Y-106845000D03*
X230750000Y-98000000D03*
D15*
X81325000Y-57650000D03*
D14*
X178250000Y-99250000D03*
D15*
X128660000Y-84359285D03*
D14*
X206150000Y-42175000D03*
D15*
X72875000Y-52750000D03*
D14*
X183000000Y-79300000D03*
X59500000Y-55125000D03*
D15*
X108238572Y-107783432D03*
X190275000Y-87075000D03*
X190275000Y-85325000D03*
D14*
X62925000Y-53625000D03*
X161250000Y-98000000D03*
D15*
X82975000Y-57650000D03*
D14*
X134500000Y-104500000D03*
X164220000Y-108595000D03*
X216725000Y-87225000D03*
D15*
X71225000Y-47625000D03*
D14*
X175300000Y-85025000D03*
X109076610Y-108707543D03*
D15*
X120680000Y-84397438D03*
D14*
X145170000Y-108595000D03*
X183000000Y-78050000D03*
D15*
X78675000Y-51250000D03*
D14*
X192650000Y-45175000D03*
D15*
X82175000Y-46125000D03*
D14*
X81750000Y-104750000D03*
X125130286Y-56864899D03*
X181153728Y-108551961D03*
X171250000Y-104750000D03*
X106000000Y-98250000D03*
X242187214Y-106825568D03*
X58250000Y-53625000D03*
X220725000Y-92475000D03*
X127475000Y-70975000D03*
X232320000Y-108595000D03*
X123700000Y-77100000D03*
X179625000Y-67300000D03*
D15*
X226050000Y-48532809D03*
D14*
X71250000Y-98285000D03*
D15*
X193775000Y-83575000D03*
D14*
X107326610Y-108707543D03*
D15*
X197694845Y-107690319D03*
D14*
X199150000Y-43675000D03*
X179625000Y-61975000D03*
X91372405Y-108551960D03*
X177775000Y-81500000D03*
D15*
X118980000Y-84497438D03*
X72875000Y-49250000D03*
D14*
X124250000Y-101750000D03*
X132950000Y-76850000D03*
D15*
X144300120Y-107665758D03*
D14*
X88000000Y-97750000D03*
D15*
X82975000Y-59400000D03*
D14*
X89500000Y-97750000D03*
X160000000Y-99250000D03*
D15*
X74850000Y-46000000D03*
X95127698Y-46085507D03*
X192025000Y-83575000D03*
D14*
X104000000Y-99750000D03*
X242187214Y-108575568D03*
X206250000Y-106250000D03*
X134500000Y-107000000D03*
X140500000Y-99000000D03*
X206150000Y-45175000D03*
D15*
X82125000Y-49400000D03*
D14*
X179403728Y-108551961D03*
X153500000Y-105750000D03*
D15*
X73100000Y-45975000D03*
D14*
X81750000Y-106000000D03*
D15*
X74625000Y-52750000D03*
X76675000Y-51050000D03*
X78775000Y-47875000D03*
X223550000Y-48532809D03*
D14*
X188250000Y-106250000D03*
D15*
X95127698Y-47835507D03*
X241327654Y-107672909D03*
X192025000Y-85325000D03*
D14*
X198510000Y-108595000D03*
X215311729Y-107304500D03*
D15*
X132110000Y-84259285D03*
D14*
X174050000Y-85025000D03*
D15*
X97050000Y-57825000D03*
X74775000Y-47650000D03*
D14*
X125440406Y-108761736D03*
X200650000Y-42175000D03*
X91372405Y-106801960D03*
D15*
X83875000Y-51150000D03*
X233246301Y-107690319D03*
X86175000Y-47850000D03*
D14*
X162470000Y-106845000D03*
D15*
X78675000Y-49500000D03*
D14*
X71951022Y-108489606D03*
X122500000Y-101750000D03*
D15*
X71125000Y-52750000D03*
X91850000Y-57925000D03*
X78775000Y-46125000D03*
D14*
X153500000Y-104500000D03*
D15*
X92295678Y-107617648D03*
D14*
X162470000Y-108595000D03*
X124250000Y-100000000D03*
D15*
X83925000Y-47875000D03*
X79575000Y-57650000D03*
X76800000Y-46050000D03*
D14*
X129804174Y-56728505D03*
X154040000Y-58585000D03*
D15*
X106100000Y-56075000D03*
D14*
X61675000Y-53625000D03*
X153500000Y-107000000D03*
X139650000Y-70675000D03*
D15*
X80525000Y-46125000D03*
D14*
X62925000Y-55125000D03*
X88000000Y-96500000D03*
X181125000Y-66050000D03*
X73701022Y-108489606D03*
X215475000Y-88725000D03*
X134200000Y-76850000D03*
D15*
X91850000Y-56175000D03*
D14*
X154060000Y-56045000D03*
X212250000Y-98250000D03*
X71250000Y-97035000D03*
X121200000Y-77100000D03*
D15*
X87925000Y-46100000D03*
D14*
X134500000Y-105750000D03*
X135178100Y-56742144D03*
X220725000Y-90975000D03*
X179025000Y-83000000D03*
D15*
X76775000Y-47675000D03*
D14*
X179625000Y-63225000D03*
X217061729Y-107304500D03*
X160000000Y-98000000D03*
X197150000Y-45175000D03*
D15*
X216188970Y-108083288D03*
X226050000Y-50782809D03*
X100802698Y-56160507D03*
D14*
X240437214Y-108575568D03*
D15*
X86175000Y-46100000D03*
D14*
X229500000Y-98000000D03*
X106000000Y-99750000D03*
X125975000Y-70975000D03*
X211475000Y-82975000D03*
X215311729Y-109054500D03*
X127190406Y-107011736D03*
D15*
X107850000Y-56075000D03*
D14*
X219475000Y-90975000D03*
X195500000Y-99500000D03*
X199150000Y-45175000D03*
D15*
X102502698Y-57810507D03*
D14*
X223500000Y-107500000D03*
X171250000Y-106000000D03*
X212250000Y-99500000D03*
X89500000Y-96500000D03*
X71951022Y-106739606D03*
D15*
X192025000Y-87075000D03*
X71225000Y-45875000D03*
X107850000Y-57825000D03*
D14*
X107326610Y-106957543D03*
D15*
X93600000Y-56175000D03*
X82125000Y-51150000D03*
X82175000Y-47875000D03*
D14*
X122500000Y-100000000D03*
X213500000Y-99500000D03*
X122450000Y-77100000D03*
X216725000Y-88725000D03*
X161250000Y-99250000D03*
D15*
X228300000Y-48532809D03*
D14*
X139650000Y-71925000D03*
X61675000Y-55125000D03*
X58250000Y-55125000D03*
X201150000Y-45175000D03*
X196760000Y-108595000D03*
X194250000Y-99500000D03*
D15*
X97050000Y-56075000D03*
D14*
X81750000Y-107250000D03*
X229500000Y-99250000D03*
X199150000Y-42175000D03*
D15*
X79475000Y-61025000D03*
X80525000Y-47875000D03*
D14*
X171250000Y-107250000D03*
D15*
X84725000Y-59400000D03*
X91325000Y-47850000D03*
D14*
X230750000Y-99250000D03*
D15*
X193775000Y-87075000D03*
D14*
X215475000Y-87225000D03*
D15*
X84675000Y-60925000D03*
X93600000Y-57925000D03*
D14*
X98300000Y-63050000D03*
X177000000Y-99250000D03*
D15*
X81225000Y-61025000D03*
X223550000Y-50782809D03*
X89575000Y-46100000D03*
D14*
X234070000Y-108595000D03*
D15*
X100802698Y-57910507D03*
D14*
X93122405Y-106801960D03*
X177000000Y-98000000D03*
X133868717Y-56714866D03*
X175300000Y-86525000D03*
X135450000Y-76850000D03*
D15*
X84725000Y-57650000D03*
X130410000Y-84359285D03*
D14*
X234070000Y-106845000D03*
X116517739Y-56808806D03*
X181125000Y-61975000D03*
X141750000Y-97750000D03*
X69750000Y-98285000D03*
D15*
X193775000Y-81575000D03*
X93377698Y-46085507D03*
D14*
X212725000Y-82975000D03*
X188250000Y-105000000D03*
X181125000Y-67300000D03*
D15*
X79575000Y-59400000D03*
D14*
X223500000Y-106250000D03*
D15*
X74625000Y-51000000D03*
D14*
X109076610Y-106957543D03*
D15*
X106100000Y-57825000D03*
D14*
X179403728Y-106801961D03*
X127190406Y-108761736D03*
X197650000Y-42175000D03*
D15*
X81325000Y-59400000D03*
X80425000Y-51250000D03*
D14*
X127475000Y-69725000D03*
X219475000Y-92475000D03*
X125440406Y-107011736D03*
X102000000Y-104500000D03*
D15*
X83875000Y-49400000D03*
X180293666Y-107616637D03*
X71125000Y-51000000D03*
D14*
X116750000Y-107750000D03*
X125975000Y-69725000D03*
X192650000Y-42175000D03*
X223500000Y-105000000D03*
X73701022Y-106739606D03*
X181500000Y-79300000D03*
D15*
X122430000Y-84397438D03*
X76625000Y-52750000D03*
D14*
X143420000Y-108595000D03*
X152790000Y-58585000D03*
D15*
X188775000Y-87075000D03*
D14*
X195500000Y-98250000D03*
X188250000Y-107500000D03*
D15*
X126353325Y-107820272D03*
X72875000Y-51000000D03*
X82925000Y-60925000D03*
D14*
X206250000Y-107500000D03*
D15*
X91325000Y-46100000D03*
X193775000Y-85325000D03*
D14*
X194250000Y-98250000D03*
X164220000Y-106845000D03*
X213500000Y-98250000D03*
X179625000Y-66050000D03*
D15*
X228300000Y-50782809D03*
%TD*%
%TA.AperFunction,Conductor*%
%TO.N,GND*%
G36*
X242058063Y-41050598D02*
G01*
X242174065Y-41057663D01*
X242252124Y-41062418D01*
X242271616Y-41065172D01*
X242454117Y-41105956D01*
X242472929Y-41111763D01*
X242646667Y-41180929D01*
X242664324Y-41189641D01*
X242824910Y-41285441D01*
X242840971Y-41296844D01*
X242984369Y-41416869D01*
X242998421Y-41430670D01*
X243121000Y-41571881D01*
X243132690Y-41587735D01*
X243231361Y-41746573D01*
X243240393Y-41764077D01*
X243312669Y-41936538D01*
X243318815Y-41955251D01*
X243362870Y-42136977D01*
X243365976Y-42156428D01*
X243381251Y-42349817D01*
X243381444Y-42354744D01*
X243381406Y-42409436D01*
X243381455Y-42410078D01*
X243393750Y-110098706D01*
X243374078Y-110165750D01*
X243321282Y-110211514D01*
X243269243Y-110222728D01*
X64074957Y-109490294D01*
X64007999Y-109470336D01*
X63962460Y-109417345D01*
X63951484Y-109364063D01*
X64160969Y-97746313D01*
X73138978Y-97746313D01*
X73159505Y-97967848D01*
X73159506Y-97967850D01*
X73220390Y-98181836D01*
X73220396Y-98181851D01*
X73319559Y-98380996D01*
X73319564Y-98381004D01*
X73453641Y-98558551D01*
X73618058Y-98708436D01*
X73618060Y-98708438D01*
X73807216Y-98825558D01*
X73807217Y-98825558D01*
X73807220Y-98825560D01*
X74014681Y-98905931D01*
X74233378Y-98946813D01*
X74233380Y-98946813D01*
X74455862Y-98946813D01*
X74455864Y-98946813D01*
X74674561Y-98905931D01*
X74882022Y-98825560D01*
X75071183Y-98708437D01*
X75235602Y-98558549D01*
X75369679Y-98381002D01*
X75468850Y-98181841D01*
X75529736Y-97967849D01*
X75540121Y-97855775D01*
X91510239Y-97855775D01*
X91530766Y-98077310D01*
X91530767Y-98077312D01*
X91591651Y-98291298D01*
X91591657Y-98291313D01*
X91690820Y-98490458D01*
X91690825Y-98490466D01*
X91824902Y-98668013D01*
X91989319Y-98817898D01*
X91989321Y-98817900D01*
X92178477Y-98935020D01*
X92178478Y-98935020D01*
X92178481Y-98935022D01*
X92385942Y-99015393D01*
X92604639Y-99056275D01*
X92604641Y-99056275D01*
X92827123Y-99056275D01*
X92827125Y-99056275D01*
X93045822Y-99015393D01*
X93253283Y-98935022D01*
X93442444Y-98817899D01*
X93606863Y-98668011D01*
X93740940Y-98490464D01*
X93840111Y-98291303D01*
X93900997Y-98077311D01*
X93912331Y-97955000D01*
X108777226Y-97955000D01*
X108797753Y-98176535D01*
X108797754Y-98176537D01*
X108858638Y-98390523D01*
X108858644Y-98390538D01*
X108957807Y-98589683D01*
X108957812Y-98589691D01*
X109091889Y-98767238D01*
X109256306Y-98917123D01*
X109256308Y-98917125D01*
X109445464Y-99034245D01*
X109445465Y-99034245D01*
X109445468Y-99034247D01*
X109652929Y-99114618D01*
X109871626Y-99155500D01*
X109871628Y-99155500D01*
X110094110Y-99155500D01*
X110094112Y-99155500D01*
X110312809Y-99114618D01*
X110520270Y-99034247D01*
X110677270Y-98937037D01*
X126857293Y-98937037D01*
X126877820Y-99158572D01*
X126877821Y-99158574D01*
X126938705Y-99372560D01*
X126938711Y-99372575D01*
X127037874Y-99571720D01*
X127037879Y-99571728D01*
X127171956Y-99749275D01*
X127336373Y-99899160D01*
X127336375Y-99899162D01*
X127525531Y-100016282D01*
X127525532Y-100016282D01*
X127525535Y-100016284D01*
X127732996Y-100096655D01*
X127951693Y-100137537D01*
X127951695Y-100137537D01*
X128174177Y-100137537D01*
X128174179Y-100137537D01*
X128392876Y-100096655D01*
X128600337Y-100016284D01*
X128789498Y-99899161D01*
X128953917Y-99749273D01*
X129087994Y-99571726D01*
X129187165Y-99372565D01*
X129248051Y-99158573D01*
X129268579Y-98937037D01*
X129258839Y-98831929D01*
X129248051Y-98715501D01*
X129248050Y-98715499D01*
X129247180Y-98712443D01*
X129187165Y-98501509D01*
X129187160Y-98501498D01*
X129087997Y-98302353D01*
X129087992Y-98302345D01*
X128953915Y-98124798D01*
X128789498Y-97974913D01*
X128789496Y-97974911D01*
X128625167Y-97873163D01*
X144664572Y-97873163D01*
X144685099Y-98094698D01*
X144685100Y-98094700D01*
X144745984Y-98308686D01*
X144745990Y-98308701D01*
X144845153Y-98507846D01*
X144845158Y-98507854D01*
X144979235Y-98685401D01*
X145124578Y-98817898D01*
X145139969Y-98831929D01*
X145143652Y-98835286D01*
X145143654Y-98835288D01*
X145332810Y-98952408D01*
X145332811Y-98952408D01*
X145332814Y-98952410D01*
X145540275Y-99032781D01*
X145758972Y-99073663D01*
X145758974Y-99073663D01*
X145981456Y-99073663D01*
X145981458Y-99073663D01*
X146200155Y-99032781D01*
X146407616Y-98952410D01*
X146596777Y-98835287D01*
X146761196Y-98685399D01*
X146895273Y-98507852D01*
X146994444Y-98308691D01*
X147055330Y-98094699D01*
X147075858Y-97873163D01*
X147057185Y-97671643D01*
X163859320Y-97671643D01*
X163879848Y-97893178D01*
X163879849Y-97893180D01*
X163940733Y-98107166D01*
X163940739Y-98107181D01*
X164039902Y-98306326D01*
X164039907Y-98306334D01*
X164173984Y-98483881D01*
X164338401Y-98633766D01*
X164338403Y-98633768D01*
X164527559Y-98750888D01*
X164527560Y-98750888D01*
X164527563Y-98750890D01*
X164735024Y-98831261D01*
X164953721Y-98872143D01*
X164953723Y-98872143D01*
X165176205Y-98872143D01*
X165176207Y-98872143D01*
X165394904Y-98831261D01*
X165602365Y-98750890D01*
X165791526Y-98633767D01*
X165931246Y-98506394D01*
X165955943Y-98483881D01*
X166020064Y-98398972D01*
X166090022Y-98306332D01*
X166189193Y-98107171D01*
X166250079Y-97893179D01*
X166270607Y-97671643D01*
X166262739Y-97586736D01*
X180829651Y-97586736D01*
X180850178Y-97808271D01*
X180850179Y-97808273D01*
X180911063Y-98022259D01*
X180911069Y-98022274D01*
X181010232Y-98221419D01*
X181010237Y-98221427D01*
X181144314Y-98398974D01*
X181269699Y-98513277D01*
X181308635Y-98548772D01*
X181308731Y-98548859D01*
X181308733Y-98548861D01*
X181497889Y-98665981D01*
X181497890Y-98665981D01*
X181497893Y-98665983D01*
X181705354Y-98746354D01*
X181924051Y-98787236D01*
X181924053Y-98787236D01*
X182146535Y-98787236D01*
X182146537Y-98787236D01*
X182365234Y-98746354D01*
X182572695Y-98665983D01*
X182761856Y-98548860D01*
X182926275Y-98398972D01*
X182928213Y-98396406D01*
X198333452Y-98396406D01*
X198353980Y-98617941D01*
X198353981Y-98617943D01*
X198414865Y-98831929D01*
X198414871Y-98831944D01*
X198514034Y-99031089D01*
X198514039Y-99031097D01*
X198648116Y-99208644D01*
X198812533Y-99358529D01*
X198812535Y-99358531D01*
X199001691Y-99475651D01*
X199001692Y-99475651D01*
X199001695Y-99475653D01*
X199209156Y-99556024D01*
X199427853Y-99596906D01*
X199427855Y-99596906D01*
X199650337Y-99596906D01*
X199650339Y-99596906D01*
X199869036Y-99556024D01*
X200076497Y-99475653D01*
X200265658Y-99358530D01*
X200430077Y-99208642D01*
X200564154Y-99031095D01*
X200663325Y-98831934D01*
X200724211Y-98617942D01*
X200744739Y-98396406D01*
X200734999Y-98291298D01*
X200724211Y-98174870D01*
X200724210Y-98174868D01*
X200713042Y-98135618D01*
X200696579Y-98077754D01*
X216044399Y-98077754D01*
X216064926Y-98299289D01*
X216064927Y-98299291D01*
X216125811Y-98513277D01*
X216125817Y-98513292D01*
X216224980Y-98712437D01*
X216224985Y-98712445D01*
X216359062Y-98889992D01*
X216523479Y-99039877D01*
X216523481Y-99039879D01*
X216712637Y-99156999D01*
X216712638Y-99156999D01*
X216712641Y-99157001D01*
X216920102Y-99237372D01*
X217138799Y-99278254D01*
X217138801Y-99278254D01*
X217361283Y-99278254D01*
X217361285Y-99278254D01*
X217579982Y-99237372D01*
X217787443Y-99157001D01*
X217976604Y-99039878D01*
X218141023Y-98889990D01*
X218275100Y-98712443D01*
X218374271Y-98513282D01*
X218435157Y-98299290D01*
X218455685Y-98077754D01*
X218440519Y-97914081D01*
X232867927Y-97914081D01*
X232888454Y-98135616D01*
X232888455Y-98135618D01*
X232949339Y-98349604D01*
X232949345Y-98349619D01*
X233048508Y-98548764D01*
X233048513Y-98548772D01*
X233182590Y-98726319D01*
X233347007Y-98876204D01*
X233347009Y-98876206D01*
X233536165Y-98993326D01*
X233536166Y-98993326D01*
X233536169Y-98993328D01*
X233743630Y-99073699D01*
X233962327Y-99114581D01*
X233962329Y-99114581D01*
X234184811Y-99114581D01*
X234184813Y-99114581D01*
X234403510Y-99073699D01*
X234610971Y-98993328D01*
X234800132Y-98876205D01*
X234939852Y-98748832D01*
X234964549Y-98726319D01*
X234972719Y-98715501D01*
X235098628Y-98548770D01*
X235197799Y-98349609D01*
X235258685Y-98135617D01*
X235279213Y-97914081D01*
X235258685Y-97692545D01*
X235197799Y-97478553D01*
X235197794Y-97478542D01*
X235098631Y-97279397D01*
X235098626Y-97279389D01*
X234964549Y-97101842D01*
X234800132Y-96951957D01*
X234800130Y-96951955D01*
X234610974Y-96834835D01*
X234610968Y-96834833D01*
X234403510Y-96754463D01*
X234184813Y-96713581D01*
X233962327Y-96713581D01*
X233743630Y-96754463D01*
X233641788Y-96793917D01*
X233536171Y-96834833D01*
X233536165Y-96834835D01*
X233347009Y-96951955D01*
X233347007Y-96951957D01*
X233182590Y-97101842D01*
X233048513Y-97279389D01*
X233048508Y-97279397D01*
X232949345Y-97478542D01*
X232949339Y-97478557D01*
X232888455Y-97692543D01*
X232888454Y-97692545D01*
X232867927Y-97914080D01*
X232867927Y-97914081D01*
X218440519Y-97914081D01*
X218435157Y-97856218D01*
X218374271Y-97642226D01*
X218370293Y-97634237D01*
X218275103Y-97443070D01*
X218275098Y-97443062D01*
X218141021Y-97265515D01*
X217976604Y-97115630D01*
X217976602Y-97115628D01*
X217787446Y-96998508D01*
X217787440Y-96998506D01*
X217579982Y-96918136D01*
X217361285Y-96877254D01*
X217138799Y-96877254D01*
X216920102Y-96918136D01*
X216832800Y-96951957D01*
X216712643Y-96998506D01*
X216712637Y-96998508D01*
X216523481Y-97115628D01*
X216523479Y-97115630D01*
X216359062Y-97265515D01*
X216224985Y-97443062D01*
X216224980Y-97443070D01*
X216125817Y-97642215D01*
X216125811Y-97642230D01*
X216064927Y-97856216D01*
X216064926Y-97856218D01*
X216044399Y-98077753D01*
X216044399Y-98077754D01*
X200696579Y-98077754D01*
X200663325Y-97960878D01*
X200663320Y-97960867D01*
X200564157Y-97761722D01*
X200564152Y-97761714D01*
X200430075Y-97584167D01*
X200265658Y-97434282D01*
X200265656Y-97434280D01*
X200076500Y-97317160D01*
X200076494Y-97317158D01*
X200060054Y-97310789D01*
X199869036Y-97236788D01*
X199650339Y-97195906D01*
X199427853Y-97195906D01*
X199209156Y-97236788D01*
X199099183Y-97279392D01*
X199001697Y-97317158D01*
X199001691Y-97317160D01*
X198812535Y-97434280D01*
X198812533Y-97434282D01*
X198648116Y-97584167D01*
X198514039Y-97761714D01*
X198514034Y-97761722D01*
X198414871Y-97960867D01*
X198414865Y-97960882D01*
X198353981Y-98174868D01*
X198353980Y-98174870D01*
X198333452Y-98396405D01*
X198333452Y-98396406D01*
X182928213Y-98396406D01*
X183060352Y-98221425D01*
X183159523Y-98022264D01*
X183220409Y-97808272D01*
X183240937Y-97586736D01*
X183220409Y-97365200D01*
X183159523Y-97151208D01*
X183159518Y-97151197D01*
X183060355Y-96952052D01*
X183060350Y-96952044D01*
X182926273Y-96774497D01*
X182761856Y-96624612D01*
X182761854Y-96624610D01*
X182572698Y-96507490D01*
X182572692Y-96507488D01*
X182365234Y-96427118D01*
X182146537Y-96386236D01*
X181924051Y-96386236D01*
X181705354Y-96427118D01*
X181591713Y-96471143D01*
X181497895Y-96507488D01*
X181497889Y-96507490D01*
X181308733Y-96624610D01*
X181308731Y-96624612D01*
X181144314Y-96774497D01*
X181010237Y-96952044D01*
X181010232Y-96952052D01*
X180911069Y-97151197D01*
X180911063Y-97151212D01*
X180850179Y-97365198D01*
X180850178Y-97365200D01*
X180829651Y-97586735D01*
X180829651Y-97586736D01*
X166262739Y-97586736D01*
X166256505Y-97519461D01*
X166250079Y-97450107D01*
X166250078Y-97450105D01*
X166248076Y-97443070D01*
X166189193Y-97236115D01*
X166181712Y-97221091D01*
X166090025Y-97036959D01*
X166090020Y-97036951D01*
X165955943Y-96859404D01*
X165791526Y-96709519D01*
X165791524Y-96709517D01*
X165602368Y-96592397D01*
X165602362Y-96592395D01*
X165394904Y-96512025D01*
X165176207Y-96471143D01*
X164953721Y-96471143D01*
X164735024Y-96512025D01*
X164603828Y-96562850D01*
X164527565Y-96592395D01*
X164527559Y-96592397D01*
X164338403Y-96709517D01*
X164338401Y-96709519D01*
X164173984Y-96859404D01*
X164039907Y-97036951D01*
X164039902Y-97036959D01*
X163940739Y-97236104D01*
X163940733Y-97236119D01*
X163879849Y-97450105D01*
X163879848Y-97450107D01*
X163859320Y-97671642D01*
X163859320Y-97671643D01*
X147057185Y-97671643D01*
X147055330Y-97651627D01*
X146994444Y-97437635D01*
X146994439Y-97437624D01*
X146895276Y-97238479D01*
X146895271Y-97238471D01*
X146761194Y-97060924D01*
X146596777Y-96911039D01*
X146596775Y-96911037D01*
X146407619Y-96793917D01*
X146407613Y-96793915D01*
X146200155Y-96713545D01*
X145981458Y-96672663D01*
X145758972Y-96672663D01*
X145540275Y-96713545D01*
X145434654Y-96754463D01*
X145332816Y-96793915D01*
X145332810Y-96793917D01*
X145143654Y-96911037D01*
X145143652Y-96911039D01*
X144979235Y-97060924D01*
X144845158Y-97238471D01*
X144845153Y-97238479D01*
X144745990Y-97437624D01*
X144745984Y-97437639D01*
X144685100Y-97651625D01*
X144685099Y-97651627D01*
X144664572Y-97873162D01*
X144664572Y-97873163D01*
X128625167Y-97873163D01*
X128600340Y-97857791D01*
X128600334Y-97857789D01*
X128596274Y-97856216D01*
X128392876Y-97777419D01*
X128174179Y-97736537D01*
X127951693Y-97736537D01*
X127732996Y-97777419D01*
X127653353Y-97808273D01*
X127525537Y-97857789D01*
X127525531Y-97857791D01*
X127336375Y-97974911D01*
X127336373Y-97974913D01*
X127171956Y-98124798D01*
X127037879Y-98302345D01*
X127037874Y-98302353D01*
X126938711Y-98501498D01*
X126938705Y-98501513D01*
X126877821Y-98715499D01*
X126877820Y-98715501D01*
X126857293Y-98937036D01*
X126857293Y-98937037D01*
X110677270Y-98937037D01*
X110709431Y-98917124D01*
X110873850Y-98767236D01*
X111007927Y-98589689D01*
X111107098Y-98390528D01*
X111167984Y-98176536D01*
X111188512Y-97955000D01*
X111182783Y-97893178D01*
X111167984Y-97733464D01*
X111167983Y-97733462D01*
X111156341Y-97692545D01*
X111107098Y-97519472D01*
X111086723Y-97478553D01*
X111007930Y-97320316D01*
X111007925Y-97320308D01*
X110873848Y-97142761D01*
X110709431Y-96992876D01*
X110709429Y-96992874D01*
X110520273Y-96875754D01*
X110520267Y-96875752D01*
X110312809Y-96795382D01*
X110094112Y-96754500D01*
X109871626Y-96754500D01*
X109652929Y-96795382D01*
X109521733Y-96846207D01*
X109445470Y-96875752D01*
X109445464Y-96875754D01*
X109256308Y-96992874D01*
X109256306Y-96992876D01*
X109091889Y-97142761D01*
X108957812Y-97320308D01*
X108957807Y-97320316D01*
X108858644Y-97519461D01*
X108858638Y-97519476D01*
X108797754Y-97733462D01*
X108797753Y-97733464D01*
X108777226Y-97954999D01*
X108777226Y-97955000D01*
X93912331Y-97955000D01*
X93921525Y-97855775D01*
X93900997Y-97634239D01*
X93840111Y-97420247D01*
X93790351Y-97320316D01*
X93740943Y-97221091D01*
X93740938Y-97221083D01*
X93606861Y-97043536D01*
X93442444Y-96893651D01*
X93442442Y-96893649D01*
X93253286Y-96776529D01*
X93253280Y-96776527D01*
X93248040Y-96774497D01*
X93045822Y-96696157D01*
X92827125Y-96655275D01*
X92604639Y-96655275D01*
X92385942Y-96696157D01*
X92340966Y-96713581D01*
X92178483Y-96776527D01*
X92178477Y-96776529D01*
X91989321Y-96893649D01*
X91989319Y-96893651D01*
X91824902Y-97043536D01*
X91690825Y-97221083D01*
X91690820Y-97221091D01*
X91591657Y-97420236D01*
X91591651Y-97420251D01*
X91530767Y-97634237D01*
X91530766Y-97634239D01*
X91510239Y-97855774D01*
X91510239Y-97855775D01*
X75540121Y-97855775D01*
X75550264Y-97746313D01*
X75535239Y-97584170D01*
X75529736Y-97524777D01*
X75529735Y-97524775D01*
X75528227Y-97519476D01*
X75468850Y-97310785D01*
X75453221Y-97279397D01*
X75369682Y-97111629D01*
X75369677Y-97111621D01*
X75235600Y-96934074D01*
X75071183Y-96784189D01*
X75071181Y-96784187D01*
X74882025Y-96667067D01*
X74882019Y-96667065D01*
X74674561Y-96586695D01*
X74455864Y-96545813D01*
X74233378Y-96545813D01*
X74014681Y-96586695D01*
X73916806Y-96624612D01*
X73807222Y-96667065D01*
X73807216Y-96667067D01*
X73618060Y-96784187D01*
X73618058Y-96784189D01*
X73453641Y-96934074D01*
X73319564Y-97111621D01*
X73319559Y-97111629D01*
X73220396Y-97310774D01*
X73220390Y-97310789D01*
X73159506Y-97524775D01*
X73159505Y-97524777D01*
X73138978Y-97746312D01*
X73138978Y-97746313D01*
X64160969Y-97746313D01*
X64235196Y-93629769D01*
X64256086Y-93563099D01*
X64270610Y-93545222D01*
X68213745Y-89521991D01*
X68274725Y-89487893D01*
X68301790Y-89484789D01*
X105200000Y-89335000D01*
X106700000Y-89335000D01*
X109123749Y-86836289D01*
X109126320Y-86833790D01*
X113986086Y-82380448D01*
X114034425Y-81175000D01*
X117944357Y-81175000D01*
X117964884Y-81396535D01*
X117964885Y-81396537D01*
X118025769Y-81610523D01*
X118025775Y-81610538D01*
X118124938Y-81809683D01*
X118124943Y-81809691D01*
X118259020Y-81987238D01*
X118423437Y-82137123D01*
X118423439Y-82137125D01*
X118612595Y-82254245D01*
X118612596Y-82254245D01*
X118612599Y-82254247D01*
X118820060Y-82334618D01*
X119038757Y-82375500D01*
X119038759Y-82375500D01*
X119261241Y-82375500D01*
X119261243Y-82375500D01*
X119479940Y-82334618D01*
X119687401Y-82254247D01*
X119876562Y-82137124D01*
X120040981Y-81987236D01*
X120175058Y-81809689D01*
X120274229Y-81610528D01*
X120335115Y-81396536D01*
X120355643Y-81175000D01*
X120339427Y-81000000D01*
X129944357Y-81000000D01*
X129964884Y-81221535D01*
X129964885Y-81221537D01*
X130025769Y-81435523D01*
X130025775Y-81435538D01*
X130124938Y-81634683D01*
X130124943Y-81634691D01*
X130259020Y-81812238D01*
X130423437Y-81962123D01*
X130423439Y-81962125D01*
X130612595Y-82079245D01*
X130612596Y-82079245D01*
X130612599Y-82079247D01*
X130820060Y-82159618D01*
X131038757Y-82200500D01*
X131038759Y-82200500D01*
X131261241Y-82200500D01*
X131261243Y-82200500D01*
X131479940Y-82159618D01*
X131687401Y-82079247D01*
X131876562Y-81962124D01*
X132040981Y-81812236D01*
X132175058Y-81634689D01*
X132274229Y-81435528D01*
X132335115Y-81221536D01*
X132355643Y-81000000D01*
X132335115Y-80778464D01*
X132334129Y-80775000D01*
X139444357Y-80775000D01*
X139464884Y-80996535D01*
X139464885Y-80996537D01*
X139525769Y-81210523D01*
X139525775Y-81210538D01*
X139624938Y-81409683D01*
X139624943Y-81409691D01*
X139759020Y-81587238D01*
X139923437Y-81737123D01*
X139923439Y-81737125D01*
X140112595Y-81854245D01*
X140112596Y-81854245D01*
X140112599Y-81854247D01*
X140320060Y-81934618D01*
X140538757Y-81975500D01*
X140538759Y-81975500D01*
X140761241Y-81975500D01*
X140761243Y-81975500D01*
X140979940Y-81934618D01*
X141187401Y-81854247D01*
X141376562Y-81737124D01*
X141540981Y-81587236D01*
X141675058Y-81409689D01*
X141774229Y-81210528D01*
X141835115Y-80996536D01*
X141855643Y-80775000D01*
X141835115Y-80553464D01*
X141774229Y-80339472D01*
X141774224Y-80339461D01*
X141675061Y-80140316D01*
X141675056Y-80140308D01*
X141540979Y-79962761D01*
X141376562Y-79812876D01*
X141376560Y-79812874D01*
X141187404Y-79695754D01*
X141187398Y-79695752D01*
X140979940Y-79615382D01*
X140761243Y-79574500D01*
X140538757Y-79574500D01*
X140320060Y-79615382D01*
X140188864Y-79666207D01*
X140112601Y-79695752D01*
X140112595Y-79695754D01*
X139923439Y-79812874D01*
X139923437Y-79812876D01*
X139759020Y-79962761D01*
X139624943Y-80140308D01*
X139624938Y-80140316D01*
X139525775Y-80339461D01*
X139525769Y-80339476D01*
X139464885Y-80553462D01*
X139464884Y-80553464D01*
X139444357Y-80774999D01*
X139444357Y-80775000D01*
X132334129Y-80775000D01*
X132274229Y-80564472D01*
X132262201Y-80540316D01*
X132175061Y-80365316D01*
X132175056Y-80365308D01*
X132040979Y-80187761D01*
X131876562Y-80037876D01*
X131876560Y-80037874D01*
X131687404Y-79920754D01*
X131687398Y-79920752D01*
X131479940Y-79840382D01*
X131261243Y-79799500D01*
X131038757Y-79799500D01*
X130820060Y-79840382D01*
X130688864Y-79891207D01*
X130612601Y-79920752D01*
X130612595Y-79920754D01*
X130423439Y-80037874D01*
X130423437Y-80037876D01*
X130259020Y-80187761D01*
X130124943Y-80365308D01*
X130124938Y-80365316D01*
X130025775Y-80564461D01*
X130025769Y-80564476D01*
X129964885Y-80778462D01*
X129964884Y-80778464D01*
X129944357Y-80999999D01*
X129944357Y-81000000D01*
X120339427Y-81000000D01*
X120335115Y-80953464D01*
X120274229Y-80739472D01*
X120187089Y-80564472D01*
X120175061Y-80540316D01*
X120175056Y-80540308D01*
X120040979Y-80362761D01*
X119876562Y-80212876D01*
X119876560Y-80212874D01*
X119687404Y-80095754D01*
X119687398Y-80095752D01*
X119479940Y-80015382D01*
X119261243Y-79974500D01*
X119038757Y-79974500D01*
X118820060Y-80015382D01*
X118688864Y-80066207D01*
X118612601Y-80095752D01*
X118612595Y-80095754D01*
X118423439Y-80212874D01*
X118423437Y-80212876D01*
X118259020Y-80362761D01*
X118124943Y-80540308D01*
X118124938Y-80540316D01*
X118025775Y-80739461D01*
X118025769Y-80739476D01*
X117964885Y-80953462D01*
X117964884Y-80953464D01*
X117944357Y-81174999D01*
X117944357Y-81175000D01*
X114034425Y-81175000D01*
X114386086Y-72405448D01*
X114511086Y-68180448D01*
X114511085Y-68180447D01*
X114511086Y-68180447D01*
X111631086Y-68105448D01*
X94186086Y-68230448D01*
X74160704Y-68093937D01*
X74093800Y-68073796D01*
X74048406Y-68020681D01*
X74037549Y-67970004D01*
X74036086Y-64980448D01*
X74036086Y-64955448D01*
X74035722Y-64853163D01*
X114444357Y-64853163D01*
X114464884Y-65074698D01*
X114464885Y-65074700D01*
X114525769Y-65288686D01*
X114525775Y-65288701D01*
X114624938Y-65487846D01*
X114624943Y-65487854D01*
X114759020Y-65665401D01*
X114923437Y-65815286D01*
X114923439Y-65815288D01*
X115112595Y-65932408D01*
X115112596Y-65932408D01*
X115112599Y-65932410D01*
X115320060Y-66012781D01*
X115538757Y-66053663D01*
X115538759Y-66053663D01*
X115761241Y-66053663D01*
X115761243Y-66053663D01*
X115979940Y-66012781D01*
X116187401Y-65932410D01*
X116376562Y-65815287D01*
X116540981Y-65665399D01*
X116675058Y-65487852D01*
X116774229Y-65288691D01*
X116835115Y-65074699D01*
X116855643Y-64853163D01*
X125863152Y-64853163D01*
X125883679Y-65074698D01*
X125883680Y-65074700D01*
X125944564Y-65288686D01*
X125944570Y-65288701D01*
X126043733Y-65487846D01*
X126043738Y-65487854D01*
X126177815Y-65665401D01*
X126342232Y-65815286D01*
X126342234Y-65815288D01*
X126531390Y-65932408D01*
X126531391Y-65932408D01*
X126531394Y-65932410D01*
X126738855Y-66012781D01*
X126957552Y-66053663D01*
X126957554Y-66053663D01*
X127180036Y-66053663D01*
X127180038Y-66053663D01*
X127398735Y-66012781D01*
X127606196Y-65932410D01*
X127795357Y-65815287D01*
X127959776Y-65665399D01*
X128093853Y-65487852D01*
X128193024Y-65288691D01*
X128253910Y-65074699D01*
X128274438Y-64853163D01*
X128257929Y-64675000D01*
X137972123Y-64675000D01*
X137992650Y-64896535D01*
X137992651Y-64896537D01*
X138053535Y-65110523D01*
X138053541Y-65110538D01*
X138152704Y-65309683D01*
X138152709Y-65309691D01*
X138286786Y-65487238D01*
X138451203Y-65637123D01*
X138451205Y-65637125D01*
X138640361Y-65754245D01*
X138640362Y-65754245D01*
X138640365Y-65754247D01*
X138847826Y-65834618D01*
X139066523Y-65875500D01*
X139066525Y-65875500D01*
X139289007Y-65875500D01*
X139289009Y-65875500D01*
X139507706Y-65834618D01*
X139715167Y-65754247D01*
X139904328Y-65637124D01*
X140068747Y-65487236D01*
X140202824Y-65309689D01*
X140301995Y-65110528D01*
X140362881Y-64896536D01*
X140383409Y-64675000D01*
X140362881Y-64453464D01*
X140301995Y-64239472D01*
X140291542Y-64218479D01*
X140202827Y-64040316D01*
X140202822Y-64040308D01*
X140068745Y-63862761D01*
X139904328Y-63712876D01*
X139904326Y-63712874D01*
X139715170Y-63595754D01*
X139715164Y-63595752D01*
X139507706Y-63515382D01*
X139289009Y-63474500D01*
X139066523Y-63474500D01*
X138847826Y-63515382D01*
X138716630Y-63566207D01*
X138640367Y-63595752D01*
X138640361Y-63595754D01*
X138451205Y-63712874D01*
X138451203Y-63712876D01*
X138286786Y-63862761D01*
X138152709Y-64040308D01*
X138152704Y-64040316D01*
X138053541Y-64239461D01*
X138053535Y-64239476D01*
X137992651Y-64453462D01*
X137992650Y-64453464D01*
X137972123Y-64674999D01*
X137972123Y-64675000D01*
X128257929Y-64675000D01*
X128253910Y-64631627D01*
X128193024Y-64417635D01*
X128104309Y-64239472D01*
X128093856Y-64218479D01*
X128093851Y-64218471D01*
X127959774Y-64040924D01*
X127795357Y-63891039D01*
X127795355Y-63891037D01*
X127606199Y-63773917D01*
X127606193Y-63773915D01*
X127398735Y-63693545D01*
X127180038Y-63652663D01*
X126957552Y-63652663D01*
X126738855Y-63693545D01*
X126607659Y-63744370D01*
X126531396Y-63773915D01*
X126531390Y-63773917D01*
X126342234Y-63891037D01*
X126342232Y-63891039D01*
X126177815Y-64040924D01*
X126043738Y-64218471D01*
X126043733Y-64218479D01*
X125944570Y-64417624D01*
X125944564Y-64417639D01*
X125883680Y-64631625D01*
X125883679Y-64631627D01*
X125863152Y-64853162D01*
X125863152Y-64853163D01*
X116855643Y-64853163D01*
X116835115Y-64631627D01*
X116774229Y-64417635D01*
X116685514Y-64239472D01*
X116675061Y-64218479D01*
X116675056Y-64218471D01*
X116540979Y-64040924D01*
X116376562Y-63891039D01*
X116376560Y-63891037D01*
X116187404Y-63773917D01*
X116187398Y-63773915D01*
X115979940Y-63693545D01*
X115761243Y-63652663D01*
X115538757Y-63652663D01*
X115320060Y-63693545D01*
X115188864Y-63744370D01*
X115112601Y-63773915D01*
X115112595Y-63773917D01*
X114923439Y-63891037D01*
X114923437Y-63891039D01*
X114759020Y-64040924D01*
X114624943Y-64218471D01*
X114624938Y-64218479D01*
X114525775Y-64417624D01*
X114525769Y-64417639D01*
X114464885Y-64631625D01*
X114464884Y-64631627D01*
X114444357Y-64853162D01*
X114444357Y-64853163D01*
X74035722Y-64853163D01*
X74011086Y-57930448D01*
X49175359Y-57930448D01*
X49108320Y-57910763D01*
X49062565Y-57857959D01*
X49051359Y-57806458D01*
X49051056Y-54175000D01*
X152444356Y-54175000D01*
X152464884Y-54396535D01*
X152464885Y-54396537D01*
X152525769Y-54610523D01*
X152525775Y-54610538D01*
X152624938Y-54809683D01*
X152624943Y-54809691D01*
X152759020Y-54987238D01*
X152923437Y-55137123D01*
X152923439Y-55137125D01*
X153112595Y-55254245D01*
X153112596Y-55254245D01*
X153112599Y-55254247D01*
X153320060Y-55334618D01*
X153538757Y-55375500D01*
X153538759Y-55375500D01*
X153761241Y-55375500D01*
X153761243Y-55375500D01*
X153979940Y-55334618D01*
X154187401Y-55254247D01*
X154376562Y-55137124D01*
X154540981Y-54987236D01*
X154675058Y-54809689D01*
X154774229Y-54610528D01*
X154835115Y-54396536D01*
X154855643Y-54175000D01*
X154846234Y-54073464D01*
X154835115Y-53953464D01*
X154835114Y-53953462D01*
X154809142Y-53862181D01*
X154774229Y-53739472D01*
X154774224Y-53739461D01*
X154675061Y-53540316D01*
X154675056Y-53540308D01*
X154540979Y-53362761D01*
X154376562Y-53212876D01*
X154376560Y-53212874D01*
X154187404Y-53095754D01*
X154187398Y-53095752D01*
X153979940Y-53015382D01*
X153761243Y-52974500D01*
X153538757Y-52974500D01*
X153320060Y-53015382D01*
X153188864Y-53066207D01*
X153112601Y-53095752D01*
X153112595Y-53095754D01*
X152923439Y-53212874D01*
X152923437Y-53212876D01*
X152759020Y-53362761D01*
X152624943Y-53540308D01*
X152624938Y-53540316D01*
X152525775Y-53739461D01*
X152525769Y-53739476D01*
X152464885Y-53953462D01*
X152464884Y-53953464D01*
X152444356Y-54174999D01*
X152444356Y-54175000D01*
X49051056Y-54175000D01*
X49050915Y-52481392D01*
X195820587Y-52481392D01*
X195841114Y-52702927D01*
X195841115Y-52702929D01*
X195901999Y-52916915D01*
X195902005Y-52916930D01*
X196001168Y-53116075D01*
X196001173Y-53116083D01*
X196135250Y-53293630D01*
X196299667Y-53443515D01*
X196299669Y-53443517D01*
X196488825Y-53560637D01*
X196488826Y-53560637D01*
X196488829Y-53560639D01*
X196696290Y-53641010D01*
X196914987Y-53681892D01*
X196914989Y-53681892D01*
X197137471Y-53681892D01*
X197137473Y-53681892D01*
X197356170Y-53641010D01*
X197563631Y-53560639D01*
X197752792Y-53443516D01*
X197917211Y-53293628D01*
X197934101Y-53271261D01*
X197990207Y-53229625D01*
X198059919Y-53224931D01*
X198121102Y-53258671D01*
X198132010Y-53271259D01*
X198178841Y-53333272D01*
X198184701Y-53338614D01*
X198342822Y-53482761D01*
X198343258Y-53483158D01*
X198343260Y-53483160D01*
X198532416Y-53600280D01*
X198532417Y-53600280D01*
X198532420Y-53600282D01*
X198739881Y-53680653D01*
X198958578Y-53721535D01*
X198958580Y-53721535D01*
X199181062Y-53721535D01*
X199181064Y-53721535D01*
X199399761Y-53680653D01*
X199607222Y-53600282D01*
X199796383Y-53483159D01*
X199960802Y-53333271D01*
X199970866Y-53319942D01*
X200026972Y-53278307D01*
X200096684Y-53273614D01*
X200157866Y-53307355D01*
X200168773Y-53319940D01*
X200178842Y-53333274D01*
X200194844Y-53347861D01*
X200231126Y-53407572D01*
X200229365Y-53477419D01*
X200210260Y-53514224D01*
X200099947Y-53660302D01*
X200099938Y-53660316D01*
X200000775Y-53859461D01*
X200000769Y-53859476D01*
X199939885Y-54073462D01*
X199939884Y-54073464D01*
X199919356Y-54294999D01*
X199919356Y-54295000D01*
X199939884Y-54516535D01*
X199939885Y-54516537D01*
X200000769Y-54730523D01*
X200000775Y-54730538D01*
X200099938Y-54929683D01*
X200099943Y-54929691D01*
X200224985Y-55095273D01*
X200249677Y-55160635D01*
X200235112Y-55228969D01*
X200224985Y-55244727D01*
X200099943Y-55410308D01*
X200099938Y-55410316D01*
X200000775Y-55609461D01*
X200000769Y-55609476D01*
X199939885Y-55823462D01*
X199939884Y-55823464D01*
X199919356Y-56044999D01*
X199919356Y-56045000D01*
X199939884Y-56266535D01*
X199939885Y-56266537D01*
X200000769Y-56480523D01*
X200000775Y-56480538D01*
X200099938Y-56679683D01*
X200099943Y-56679691D01*
X200125000Y-56712871D01*
X200234018Y-56857235D01*
X200234021Y-56857238D01*
X200234024Y-56857241D01*
X200260829Y-56881677D01*
X200297111Y-56941388D01*
X200295350Y-57011235D01*
X200260829Y-57064951D01*
X200159020Y-57157761D01*
X200024943Y-57335308D01*
X200024938Y-57335316D01*
X199925775Y-57534461D01*
X199925769Y-57534476D01*
X199864885Y-57748462D01*
X199864884Y-57748464D01*
X199844356Y-57969999D01*
X199844356Y-57970000D01*
X199864884Y-58191535D01*
X199864885Y-58191537D01*
X199925769Y-58405523D01*
X199925775Y-58405538D01*
X200024938Y-58604683D01*
X200024943Y-58604691D01*
X200159020Y-58782238D01*
X200323437Y-58932123D01*
X200323439Y-58932125D01*
X200512595Y-59049245D01*
X200512596Y-59049245D01*
X200512599Y-59049247D01*
X200720060Y-59129618D01*
X200938757Y-59170500D01*
X200938759Y-59170500D01*
X201161241Y-59170500D01*
X201161243Y-59170500D01*
X201379940Y-59129618D01*
X201587401Y-59049247D01*
X201776562Y-58932124D01*
X201940981Y-58782236D01*
X201951045Y-58768907D01*
X202007151Y-58727272D01*
X202076863Y-58722579D01*
X202138045Y-58756320D01*
X202148946Y-58768898D01*
X202149977Y-58770263D01*
X202174675Y-58835622D01*
X202160116Y-58903958D01*
X202149985Y-58919725D01*
X202024942Y-59085309D01*
X202024938Y-59085316D01*
X201925775Y-59284461D01*
X201925769Y-59284476D01*
X201864885Y-59498462D01*
X201864884Y-59498464D01*
X201844356Y-59719999D01*
X201844356Y-59720000D01*
X201864884Y-59941535D01*
X201864885Y-59941537D01*
X201925769Y-60155523D01*
X201925775Y-60155538D01*
X202024938Y-60354683D01*
X202024943Y-60354691D01*
X202159020Y-60532238D01*
X202323437Y-60682123D01*
X202323439Y-60682125D01*
X202512595Y-60799245D01*
X202512596Y-60799245D01*
X202512599Y-60799247D01*
X202720060Y-60879618D01*
X202938757Y-60920500D01*
X202938759Y-60920500D01*
X203161241Y-60920500D01*
X203161243Y-60920500D01*
X203379940Y-60879618D01*
X203587401Y-60799247D01*
X203776562Y-60682124D01*
X203940981Y-60532236D01*
X204075058Y-60354689D01*
X204174229Y-60155528D01*
X204235115Y-59941536D01*
X204255643Y-59720000D01*
X204235115Y-59498464D01*
X204174229Y-59284472D01*
X204174224Y-59284461D01*
X204075061Y-59085316D01*
X204075056Y-59085308D01*
X204047822Y-59049245D01*
X203950012Y-58919724D01*
X203925322Y-58854366D01*
X203939887Y-58786031D01*
X203950008Y-58770282D01*
X204075058Y-58604689D01*
X204075058Y-58604687D01*
X204076046Y-58603380D01*
X204132155Y-58561744D01*
X204201867Y-58557053D01*
X204263049Y-58590795D01*
X204273954Y-58603381D01*
X204409017Y-58782234D01*
X204409019Y-58782237D01*
X204573437Y-58932123D01*
X204573439Y-58932125D01*
X204762595Y-59049245D01*
X204762596Y-59049245D01*
X204762599Y-59049247D01*
X204970060Y-59129618D01*
X205188757Y-59170500D01*
X205188759Y-59170500D01*
X205411241Y-59170500D01*
X205411243Y-59170500D01*
X205629940Y-59129618D01*
X205837401Y-59049247D01*
X206026562Y-58932124D01*
X206186818Y-58786031D01*
X206190979Y-58782238D01*
X206190983Y-58782234D01*
X206325058Y-58604689D01*
X206424229Y-58405528D01*
X206485115Y-58191536D01*
X206505643Y-57970000D01*
X206485115Y-57748464D01*
X206424229Y-57534472D01*
X206331976Y-57349204D01*
X206325061Y-57335316D01*
X206325056Y-57335308D01*
X206299999Y-57302128D01*
X206190981Y-57157764D01*
X206174990Y-57143186D01*
X206164169Y-57133321D01*
X206127889Y-57073609D01*
X206129651Y-57003761D01*
X206164171Y-56950048D01*
X206173671Y-56941388D01*
X206265981Y-56857236D01*
X206276046Y-56843906D01*
X206332153Y-56802271D01*
X206401865Y-56797578D01*
X206463047Y-56831319D01*
X206473948Y-56843900D01*
X206484019Y-56857236D01*
X206484022Y-56857239D01*
X206484025Y-56857242D01*
X206648437Y-57007123D01*
X206648439Y-57007125D01*
X206837595Y-57124245D01*
X206837596Y-57124245D01*
X206837599Y-57124247D01*
X207045060Y-57204618D01*
X207263757Y-57245500D01*
X207263759Y-57245500D01*
X207486241Y-57245500D01*
X207486243Y-57245500D01*
X207704940Y-57204618D01*
X207912401Y-57124247D01*
X208101562Y-57007124D01*
X208241282Y-56879751D01*
X208265979Y-56857238D01*
X208265982Y-56857235D01*
X208400058Y-56679689D01*
X208499229Y-56480528D01*
X208560115Y-56266536D01*
X208580643Y-56045000D01*
X208560115Y-55823464D01*
X208499229Y-55609472D01*
X208406976Y-55424204D01*
X208400061Y-55410316D01*
X208400056Y-55410308D01*
X208342897Y-55334618D01*
X208275012Y-55244724D01*
X208250322Y-55179366D01*
X208264887Y-55111031D01*
X208275008Y-55095282D01*
X208400058Y-54929689D01*
X208499229Y-54730528D01*
X208560115Y-54516536D01*
X208580643Y-54295000D01*
X208560115Y-54073464D01*
X208499229Y-53859472D01*
X208439476Y-53739472D01*
X208400061Y-53660316D01*
X208400056Y-53660308D01*
X208265979Y-53482761D01*
X208101562Y-53332876D01*
X208101560Y-53332874D01*
X207912404Y-53215754D01*
X207912398Y-53215752D01*
X207704940Y-53135382D01*
X207486243Y-53094500D01*
X207263757Y-53094500D01*
X207045060Y-53135382D01*
X206913864Y-53186207D01*
X206837601Y-53215752D01*
X206837595Y-53215754D01*
X206648439Y-53332874D01*
X206648437Y-53332876D01*
X206484019Y-53482762D01*
X206473953Y-53496093D01*
X206417844Y-53537728D01*
X206348132Y-53542419D01*
X206286950Y-53508676D01*
X206276047Y-53496093D01*
X206265980Y-53482762D01*
X206101562Y-53332876D01*
X206101560Y-53332874D01*
X205912404Y-53215754D01*
X205912398Y-53215752D01*
X205704940Y-53135382D01*
X205486243Y-53094500D01*
X205263757Y-53094500D01*
X205045060Y-53135382D01*
X204913864Y-53186207D01*
X204837601Y-53215752D01*
X204837595Y-53215754D01*
X204648439Y-53332874D01*
X204648437Y-53332876D01*
X204484020Y-53482761D01*
X204348954Y-53661619D01*
X204292845Y-53703255D01*
X204223133Y-53707946D01*
X204161951Y-53674204D01*
X204151046Y-53661619D01*
X204015979Y-53482761D01*
X203851562Y-53332876D01*
X203851560Y-53332874D01*
X203662404Y-53215754D01*
X203662398Y-53215752D01*
X203454940Y-53135382D01*
X203236243Y-53094500D01*
X203013757Y-53094500D01*
X202795060Y-53135382D01*
X202663864Y-53186207D01*
X202587601Y-53215752D01*
X202587595Y-53215754D01*
X202398439Y-53332874D01*
X202398437Y-53332876D01*
X202234019Y-53482762D01*
X202223950Y-53496096D01*
X202167839Y-53537730D01*
X202098127Y-53542418D01*
X202036946Y-53508673D01*
X202026047Y-53496094D01*
X202015981Y-53482764D01*
X202010118Y-53477419D01*
X201999976Y-53468173D01*
X201963694Y-53408462D01*
X201965455Y-53338614D01*
X201984557Y-53301813D01*
X202094879Y-53155724D01*
X202194050Y-52956563D01*
X202254936Y-52742571D01*
X202275464Y-52521035D01*
X202254936Y-52299499D01*
X202194050Y-52085507D01*
X202174305Y-52045853D01*
X202094882Y-51886351D01*
X202094877Y-51886343D01*
X201960800Y-51708796D01*
X201796383Y-51558911D01*
X201796381Y-51558909D01*
X201607225Y-51441789D01*
X201607219Y-51441787D01*
X201399761Y-51361417D01*
X201181064Y-51320535D01*
X200958578Y-51320535D01*
X200739881Y-51361417D01*
X200634753Y-51402144D01*
X200532422Y-51441787D01*
X200532416Y-51441789D01*
X200343260Y-51558909D01*
X200343258Y-51558911D01*
X200178840Y-51708797D01*
X200168774Y-51722128D01*
X200112665Y-51763763D01*
X200042953Y-51768454D01*
X199981771Y-51734711D01*
X199970868Y-51722128D01*
X199960801Y-51708797D01*
X199796383Y-51558911D01*
X199796381Y-51558909D01*
X199607225Y-51441789D01*
X199607219Y-51441787D01*
X199399761Y-51361417D01*
X199181064Y-51320535D01*
X198958578Y-51320535D01*
X198739881Y-51361417D01*
X198634753Y-51402144D01*
X198532422Y-51441787D01*
X198532416Y-51441789D01*
X198343260Y-51558909D01*
X198343258Y-51558911D01*
X198178840Y-51708797D01*
X198178836Y-51708802D01*
X198161944Y-51731170D01*
X198105834Y-51772804D01*
X198036122Y-51777493D01*
X197974941Y-51743749D01*
X197964039Y-51731166D01*
X197917212Y-51669157D01*
X197917210Y-51669154D01*
X197752792Y-51519268D01*
X197752790Y-51519266D01*
X197563634Y-51402146D01*
X197563628Y-51402144D01*
X197356170Y-51321774D01*
X197137473Y-51280892D01*
X196914987Y-51280892D01*
X196696290Y-51321774D01*
X196593960Y-51361417D01*
X196488831Y-51402144D01*
X196488825Y-51402146D01*
X196299669Y-51519266D01*
X196299667Y-51519268D01*
X196135250Y-51669153D01*
X196001173Y-51846700D01*
X196001168Y-51846708D01*
X195902005Y-52045853D01*
X195901999Y-52045868D01*
X195841115Y-52259854D01*
X195841114Y-52259856D01*
X195820587Y-52481391D01*
X195820587Y-52481392D01*
X49050915Y-52481392D01*
X49050837Y-51540688D01*
X49050737Y-50345000D01*
X115469396Y-50345000D01*
X115489778Y-50603990D01*
X115550427Y-50856610D01*
X115649843Y-51096623D01*
X115649845Y-51096627D01*
X115649846Y-51096628D01*
X115785588Y-51318140D01*
X115954311Y-51515689D01*
X116151860Y-51684412D01*
X116373372Y-51820154D01*
X116373374Y-51820154D01*
X116373376Y-51820156D01*
X116433727Y-51845154D01*
X116613390Y-51919573D01*
X116866006Y-51980221D01*
X116963076Y-51987860D01*
X117060145Y-51995500D01*
X117060147Y-51995500D01*
X117189855Y-51995500D01*
X117254566Y-51990407D01*
X117383994Y-51980221D01*
X117636610Y-51919573D01*
X117876628Y-51820154D01*
X118098140Y-51684412D01*
X118295689Y-51515689D01*
X118464412Y-51318140D01*
X118600154Y-51096628D01*
X118699573Y-50856610D01*
X118760221Y-50603994D01*
X118780604Y-50345000D01*
X120469396Y-50345000D01*
X120489778Y-50603990D01*
X120550427Y-50856610D01*
X120649843Y-51096623D01*
X120649845Y-51096627D01*
X120649846Y-51096628D01*
X120785588Y-51318140D01*
X120954311Y-51515689D01*
X121151860Y-51684412D01*
X121373372Y-51820154D01*
X121373374Y-51820154D01*
X121373376Y-51820156D01*
X121433727Y-51845154D01*
X121613390Y-51919573D01*
X121866006Y-51980221D01*
X121963076Y-51987860D01*
X122060145Y-51995500D01*
X122060147Y-51995500D01*
X122189855Y-51995500D01*
X122254566Y-51990407D01*
X122383994Y-51980221D01*
X122636610Y-51919573D01*
X122876628Y-51820154D01*
X123098140Y-51684412D01*
X123295689Y-51515689D01*
X123464412Y-51318140D01*
X123600154Y-51096628D01*
X123699573Y-50856610D01*
X123760221Y-50603994D01*
X123778636Y-50370000D01*
X127494396Y-50370000D01*
X127514778Y-50628990D01*
X127575427Y-50881610D01*
X127674843Y-51121623D01*
X127674845Y-51121627D01*
X127674846Y-51121628D01*
X127810588Y-51343140D01*
X127979311Y-51540689D01*
X128176860Y-51709412D01*
X128398372Y-51845154D01*
X128398374Y-51845154D01*
X128398376Y-51845156D01*
X128417707Y-51853163D01*
X128638390Y-51944573D01*
X128891006Y-52005221D01*
X128988076Y-52012860D01*
X129085145Y-52020500D01*
X129085147Y-52020500D01*
X129214855Y-52020500D01*
X129279566Y-52015406D01*
X129408994Y-52005221D01*
X129661610Y-51944573D01*
X129901628Y-51845154D01*
X130123140Y-51709412D01*
X130320689Y-51540689D01*
X130489412Y-51343140D01*
X130625154Y-51121628D01*
X130724573Y-50881610D01*
X130785221Y-50628994D01*
X130805604Y-50370000D01*
X130805604Y-50369999D01*
X132494396Y-50369999D01*
X132514778Y-50628990D01*
X132575427Y-50881610D01*
X132674843Y-51121623D01*
X132674845Y-51121627D01*
X132674846Y-51121628D01*
X132810588Y-51343140D01*
X132979311Y-51540689D01*
X133176860Y-51709412D01*
X133398372Y-51845154D01*
X133398374Y-51845154D01*
X133398376Y-51845156D01*
X133417707Y-51853163D01*
X133638390Y-51944573D01*
X133891006Y-52005221D01*
X133988076Y-52012860D01*
X134085145Y-52020500D01*
X134085147Y-52020500D01*
X134214855Y-52020500D01*
X134279566Y-52015406D01*
X134408994Y-52005221D01*
X134661610Y-51944573D01*
X134901628Y-51845154D01*
X135123140Y-51709412D01*
X135320689Y-51540689D01*
X135489412Y-51343140D01*
X135625154Y-51121628D01*
X135724573Y-50881610D01*
X135785221Y-50628994D01*
X135805604Y-50370000D01*
X135803636Y-50345000D01*
X139319396Y-50345000D01*
X139339778Y-50603990D01*
X139400427Y-50856610D01*
X139499843Y-51096623D01*
X139499845Y-51096627D01*
X139499846Y-51096628D01*
X139635588Y-51318140D01*
X139804311Y-51515689D01*
X140001860Y-51684412D01*
X140223372Y-51820154D01*
X140223374Y-51820154D01*
X140223376Y-51820156D01*
X140283727Y-51845154D01*
X140463390Y-51919573D01*
X140716006Y-51980221D01*
X140813076Y-51987860D01*
X140910145Y-51995500D01*
X140910147Y-51995500D01*
X141039855Y-51995500D01*
X141104566Y-51990407D01*
X141233994Y-51980221D01*
X141486610Y-51919573D01*
X141726628Y-51820154D01*
X141948140Y-51684412D01*
X142145689Y-51515689D01*
X142314412Y-51318140D01*
X142450154Y-51096628D01*
X142549573Y-50856610D01*
X142610221Y-50603994D01*
X142630604Y-50345000D01*
X144319396Y-50345000D01*
X144339778Y-50603990D01*
X144400427Y-50856610D01*
X144499843Y-51096623D01*
X144499845Y-51096627D01*
X144499846Y-51096628D01*
X144635588Y-51318140D01*
X144804311Y-51515689D01*
X145001860Y-51684412D01*
X145223372Y-51820154D01*
X145223374Y-51820154D01*
X145223376Y-51820156D01*
X145283727Y-51845154D01*
X145463390Y-51919573D01*
X145716006Y-51980221D01*
X145813076Y-51987860D01*
X145910145Y-51995500D01*
X145910147Y-51995500D01*
X146039855Y-51995500D01*
X146104566Y-51990407D01*
X146233994Y-51980221D01*
X146486610Y-51919573D01*
X146726628Y-51820154D01*
X146948140Y-51684412D01*
X147145689Y-51515689D01*
X147314412Y-51318140D01*
X147450154Y-51096628D01*
X147549573Y-50856610D01*
X147610221Y-50603994D01*
X147630604Y-50345000D01*
X147610221Y-50086006D01*
X147549573Y-49833390D01*
X147460511Y-49618376D01*
X147450156Y-49593376D01*
X147334603Y-49404810D01*
X147314412Y-49371860D01*
X147145689Y-49174311D01*
X146948140Y-49005588D01*
X146815545Y-48924334D01*
X162579500Y-48924334D01*
X162620429Y-49169616D01*
X162701169Y-49404802D01*
X162701172Y-49404811D01*
X162816746Y-49618372D01*
X162819526Y-49623509D01*
X162972262Y-49819744D01*
X163131744Y-49966557D01*
X163155217Y-49988166D01*
X163363393Y-50124173D01*
X163591118Y-50224063D01*
X163832175Y-50285107D01*
X163832179Y-50285108D01*
X163832181Y-50285108D01*
X163832186Y-50285109D01*
X163965376Y-50296145D01*
X164017933Y-50300500D01*
X164017935Y-50300500D01*
X164142065Y-50300500D01*
X164142067Y-50300500D01*
X164203284Y-50295427D01*
X164327813Y-50285109D01*
X164327816Y-50285108D01*
X164327821Y-50285108D01*
X164568881Y-50224063D01*
X164796607Y-50124173D01*
X165004785Y-49988164D01*
X165187738Y-49819744D01*
X165252147Y-49736991D01*
X165308857Y-49696179D01*
X165378630Y-49692504D01*
X165439313Y-49727136D01*
X165447848Y-49736985D01*
X165512262Y-49819744D01*
X165671744Y-49966557D01*
X165695217Y-49988166D01*
X165903393Y-50124173D01*
X166131118Y-50224063D01*
X166372175Y-50285107D01*
X166372179Y-50285108D01*
X166372181Y-50285108D01*
X166372186Y-50285109D01*
X166505376Y-50296145D01*
X166557933Y-50300500D01*
X166557935Y-50300500D01*
X166682065Y-50300500D01*
X166682067Y-50300500D01*
X166743284Y-50295427D01*
X166867813Y-50285109D01*
X166867816Y-50285108D01*
X166867821Y-50285108D01*
X167108881Y-50224063D01*
X167336607Y-50124173D01*
X167544785Y-49988164D01*
X167727738Y-49819744D01*
X167792147Y-49736991D01*
X167848857Y-49696179D01*
X167918630Y-49692504D01*
X167979313Y-49727136D01*
X167987848Y-49736985D01*
X168052262Y-49819744D01*
X168211744Y-49966557D01*
X168235217Y-49988166D01*
X168443393Y-50124173D01*
X168671118Y-50224063D01*
X168912175Y-50285107D01*
X168912179Y-50285108D01*
X168912181Y-50285108D01*
X168912186Y-50285109D01*
X169045376Y-50296145D01*
X169097933Y-50300500D01*
X169097935Y-50300500D01*
X169222065Y-50300500D01*
X169222067Y-50300500D01*
X169283284Y-50295427D01*
X169407813Y-50285109D01*
X169407816Y-50285108D01*
X169407821Y-50285108D01*
X169648881Y-50224063D01*
X169876607Y-50124173D01*
X170084785Y-49988164D01*
X170267738Y-49819744D01*
X170332147Y-49736991D01*
X170388857Y-49696179D01*
X170458630Y-49692504D01*
X170519313Y-49727136D01*
X170527848Y-49736985D01*
X170592262Y-49819744D01*
X170751744Y-49966557D01*
X170775217Y-49988166D01*
X170983393Y-50124173D01*
X171211118Y-50224063D01*
X171452175Y-50285107D01*
X171452179Y-50285108D01*
X171452181Y-50285108D01*
X171452186Y-50285109D01*
X171585376Y-50296145D01*
X171637933Y-50300500D01*
X171637935Y-50300500D01*
X171762065Y-50300500D01*
X171762067Y-50300500D01*
X171823284Y-50295427D01*
X171947813Y-50285109D01*
X171947816Y-50285108D01*
X171947821Y-50285108D01*
X172188881Y-50224063D01*
X172416607Y-50124173D01*
X172624785Y-49988164D01*
X172807738Y-49819744D01*
X172872147Y-49736991D01*
X172928857Y-49696179D01*
X172998630Y-49692504D01*
X173059313Y-49727136D01*
X173067848Y-49736985D01*
X173132262Y-49819744D01*
X173291744Y-49966557D01*
X173315217Y-49988166D01*
X173523393Y-50124173D01*
X173751118Y-50224063D01*
X173992175Y-50285107D01*
X173992179Y-50285108D01*
X173992181Y-50285108D01*
X173992186Y-50285109D01*
X174125376Y-50296145D01*
X174177933Y-50300500D01*
X174177935Y-50300500D01*
X174302065Y-50300500D01*
X174302067Y-50300500D01*
X174363284Y-50295427D01*
X174487813Y-50285109D01*
X174487816Y-50285108D01*
X174487821Y-50285108D01*
X174728881Y-50224063D01*
X174956607Y-50124173D01*
X175164785Y-49988164D01*
X175347738Y-49819744D01*
X175412147Y-49736991D01*
X175468857Y-49696179D01*
X175538630Y-49692504D01*
X175599313Y-49727136D01*
X175607848Y-49736985D01*
X175672262Y-49819744D01*
X175831744Y-49966557D01*
X175855217Y-49988166D01*
X176063393Y-50124173D01*
X176291118Y-50224063D01*
X176532175Y-50285107D01*
X176532179Y-50285108D01*
X176532181Y-50285108D01*
X176532186Y-50285109D01*
X176665376Y-50296145D01*
X176717933Y-50300500D01*
X176717935Y-50300500D01*
X176842065Y-50300500D01*
X176842067Y-50300500D01*
X176903284Y-50295427D01*
X177027813Y-50285109D01*
X177027816Y-50285108D01*
X177027821Y-50285108D01*
X177268881Y-50224063D01*
X177496607Y-50124173D01*
X177704785Y-49988164D01*
X177887738Y-49819744D01*
X177952147Y-49736991D01*
X178008857Y-49696179D01*
X178078630Y-49692504D01*
X178139313Y-49727136D01*
X178147848Y-49736985D01*
X178212262Y-49819744D01*
X178371744Y-49966557D01*
X178395217Y-49988166D01*
X178603393Y-50124173D01*
X178831118Y-50224063D01*
X179072175Y-50285107D01*
X179072179Y-50285108D01*
X179072181Y-50285108D01*
X179072186Y-50285109D01*
X179205376Y-50296145D01*
X179257933Y-50300500D01*
X179257935Y-50300500D01*
X179382065Y-50300500D01*
X179382067Y-50300500D01*
X179443284Y-50295427D01*
X179567813Y-50285109D01*
X179567816Y-50285108D01*
X179567821Y-50285108D01*
X179808881Y-50224063D01*
X180036607Y-50124173D01*
X180244785Y-49988164D01*
X180427738Y-49819744D01*
X180492147Y-49736991D01*
X180548857Y-49696179D01*
X180618630Y-49692504D01*
X180679313Y-49727136D01*
X180687848Y-49736985D01*
X180752262Y-49819744D01*
X180911744Y-49966557D01*
X180935217Y-49988166D01*
X181143393Y-50124173D01*
X181371118Y-50224063D01*
X181612175Y-50285107D01*
X181612179Y-50285108D01*
X181612181Y-50285108D01*
X181612186Y-50285109D01*
X181745376Y-50296145D01*
X181797933Y-50300500D01*
X181797935Y-50300500D01*
X181922065Y-50300500D01*
X181922067Y-50300500D01*
X181983284Y-50295427D01*
X182107813Y-50285109D01*
X182107816Y-50285108D01*
X182107821Y-50285108D01*
X182348881Y-50224063D01*
X182576607Y-50124173D01*
X182784785Y-49988164D01*
X182967738Y-49819744D01*
X183120474Y-49623509D01*
X183238828Y-49404810D01*
X183319571Y-49169614D01*
X183360500Y-48924335D01*
X183360500Y-48675665D01*
X183319571Y-48430386D01*
X183238828Y-48195190D01*
X183120474Y-47976491D01*
X182967738Y-47780256D01*
X182794988Y-47621228D01*
X182758999Y-47561343D01*
X182761099Y-47491505D01*
X182794988Y-47438771D01*
X182967738Y-47279744D01*
X183120474Y-47083509D01*
X183238828Y-46864810D01*
X183319571Y-46629614D01*
X183321175Y-46619999D01*
X210944396Y-46619999D01*
X210964778Y-46878990D01*
X211025427Y-47131610D01*
X211124843Y-47371623D01*
X211124845Y-47371627D01*
X211124846Y-47371628D01*
X211260588Y-47593140D01*
X211429311Y-47790689D01*
X211626860Y-47959412D01*
X211848372Y-48095154D01*
X211848374Y-48095154D01*
X211848376Y-48095156D01*
X211909693Y-48120554D01*
X212088390Y-48194573D01*
X212341006Y-48255221D01*
X212438076Y-48262860D01*
X212535145Y-48270500D01*
X212535147Y-48270500D01*
X212664855Y-48270500D01*
X212729566Y-48265406D01*
X212858994Y-48255221D01*
X213111610Y-48194573D01*
X213351628Y-48095154D01*
X213573140Y-47959412D01*
X213770689Y-47790689D01*
X213939412Y-47593140D01*
X214075154Y-47371628D01*
X214174573Y-47131610D01*
X214235221Y-46878994D01*
X214255604Y-46620000D01*
X214235221Y-46361006D01*
X214174573Y-46108390D01*
X214084273Y-45890386D01*
X214075156Y-45868376D01*
X213944516Y-45655190D01*
X213939412Y-45646860D01*
X213770689Y-45449311D01*
X213573140Y-45280588D01*
X213351628Y-45144846D01*
X213351627Y-45144845D01*
X213351623Y-45144843D01*
X213175367Y-45071836D01*
X213111610Y-45045427D01*
X213111611Y-45045427D01*
X212973921Y-45012370D01*
X212858994Y-44984779D01*
X212858992Y-44984778D01*
X212858991Y-44984778D01*
X212664855Y-44969500D01*
X212664853Y-44969500D01*
X212535147Y-44969500D01*
X212535145Y-44969500D01*
X212341009Y-44984778D01*
X212088389Y-45045427D01*
X211848376Y-45144843D01*
X211626859Y-45280588D01*
X211429311Y-45449311D01*
X211260588Y-45646859D01*
X211124843Y-45868376D01*
X211025427Y-46108389D01*
X210964778Y-46361009D01*
X210944396Y-46619999D01*
X183321175Y-46619999D01*
X183360500Y-46384335D01*
X183360500Y-46135665D01*
X183319571Y-45890386D01*
X183238828Y-45655190D01*
X183234319Y-45646859D01*
X183120475Y-45436493D01*
X183120474Y-45436491D01*
X182967738Y-45240256D01*
X182784785Y-45071836D01*
X182784782Y-45071833D01*
X182576606Y-44935826D01*
X182348881Y-44835936D01*
X182107824Y-44774892D01*
X182107813Y-44774890D01*
X181942548Y-44761197D01*
X181922067Y-44759500D01*
X181797933Y-44759500D01*
X181778521Y-44761108D01*
X181612186Y-44774890D01*
X181612175Y-44774892D01*
X181371118Y-44835936D01*
X181143393Y-44935826D01*
X180935217Y-45071833D01*
X180752262Y-45240255D01*
X180687852Y-45323009D01*
X180631141Y-45363821D01*
X180561368Y-45367494D01*
X180500685Y-45332862D01*
X180492147Y-45323009D01*
X180427738Y-45240256D01*
X180244785Y-45071836D01*
X180244782Y-45071833D01*
X180036606Y-44935826D01*
X179808881Y-44835936D01*
X179567824Y-44774892D01*
X179567813Y-44774890D01*
X179402548Y-44761197D01*
X179382067Y-44759500D01*
X179257933Y-44759500D01*
X179238521Y-44761108D01*
X179072186Y-44774890D01*
X179072175Y-44774892D01*
X178831118Y-44835936D01*
X178603393Y-44935826D01*
X178395217Y-45071833D01*
X178223997Y-45229452D01*
X178212262Y-45240256D01*
X178147852Y-45323008D01*
X178091143Y-45363821D01*
X178021370Y-45367496D01*
X177960687Y-45332864D01*
X177952147Y-45323009D01*
X177887738Y-45240256D01*
X177704785Y-45071836D01*
X177704782Y-45071833D01*
X177496606Y-44935826D01*
X177268881Y-44835936D01*
X177027824Y-44774892D01*
X177027813Y-44774890D01*
X176862548Y-44761197D01*
X176842067Y-44759500D01*
X176717933Y-44759500D01*
X176698521Y-44761108D01*
X176532186Y-44774890D01*
X176532175Y-44774892D01*
X176291118Y-44835936D01*
X176063393Y-44935826D01*
X175855217Y-45071833D01*
X175672260Y-45240258D01*
X175607852Y-45323009D01*
X175551141Y-45363822D01*
X175481368Y-45367495D01*
X175420685Y-45332864D01*
X175412160Y-45323025D01*
X175347738Y-45240256D01*
X175164785Y-45071836D01*
X175164782Y-45071833D01*
X174956606Y-44935826D01*
X174728881Y-44835936D01*
X174487824Y-44774892D01*
X174487813Y-44774890D01*
X174322548Y-44761197D01*
X174302067Y-44759500D01*
X174177933Y-44759500D01*
X174158521Y-44761108D01*
X173992186Y-44774890D01*
X173992175Y-44774892D01*
X173751118Y-44835936D01*
X173523393Y-44935826D01*
X173315217Y-45071833D01*
X173143997Y-45229452D01*
X173132262Y-45240256D01*
X173067852Y-45323008D01*
X173011143Y-45363821D01*
X172941370Y-45367496D01*
X172880687Y-45332864D01*
X172872147Y-45323009D01*
X172807738Y-45240256D01*
X172624785Y-45071836D01*
X172624782Y-45071833D01*
X172416606Y-44935826D01*
X172188881Y-44835936D01*
X171947824Y-44774892D01*
X171947813Y-44774890D01*
X171782548Y-44761197D01*
X171762067Y-44759500D01*
X171637933Y-44759500D01*
X171618521Y-44761108D01*
X171452186Y-44774890D01*
X171452175Y-44774892D01*
X171211118Y-44835936D01*
X170983393Y-44935826D01*
X170775217Y-45071833D01*
X170603997Y-45229452D01*
X170592262Y-45240256D01*
X170527852Y-45323008D01*
X170471143Y-45363821D01*
X170401370Y-45367496D01*
X170340687Y-45332864D01*
X170332147Y-45323009D01*
X170267738Y-45240256D01*
X170084785Y-45071836D01*
X170084782Y-45071833D01*
X169876606Y-44935826D01*
X169648881Y-44835936D01*
X169407824Y-44774892D01*
X169407813Y-44774890D01*
X169242548Y-44761197D01*
X169222067Y-44759500D01*
X169097933Y-44759500D01*
X169078521Y-44761108D01*
X168912186Y-44774890D01*
X168912175Y-44774892D01*
X168671118Y-44835936D01*
X168443393Y-44935826D01*
X168235217Y-45071833D01*
X168063997Y-45229452D01*
X168052262Y-45240256D01*
X167987852Y-45323008D01*
X167931143Y-45363821D01*
X167861370Y-45367496D01*
X167800687Y-45332864D01*
X167792147Y-45323009D01*
X167727738Y-45240256D01*
X167544785Y-45071836D01*
X167544782Y-45071833D01*
X167336606Y-44935826D01*
X167108881Y-44835936D01*
X166867824Y-44774892D01*
X166867813Y-44774890D01*
X166702548Y-44761197D01*
X166682067Y-44759500D01*
X166557933Y-44759500D01*
X166538521Y-44761108D01*
X166372186Y-44774890D01*
X166372175Y-44774892D01*
X166131118Y-44835936D01*
X165903393Y-44935826D01*
X165695217Y-45071833D01*
X165523997Y-45229452D01*
X165512262Y-45240256D01*
X165447852Y-45323008D01*
X165391143Y-45363821D01*
X165321370Y-45367496D01*
X165260687Y-45332864D01*
X165252147Y-45323009D01*
X165187738Y-45240256D01*
X165004785Y-45071836D01*
X165004782Y-45071833D01*
X164796606Y-44935826D01*
X164568881Y-44835936D01*
X164327824Y-44774892D01*
X164327813Y-44774890D01*
X164162548Y-44761197D01*
X164142067Y-44759500D01*
X164017933Y-44759500D01*
X163998521Y-44761108D01*
X163832186Y-44774890D01*
X163832175Y-44774892D01*
X163591118Y-44835936D01*
X163363393Y-44935826D01*
X163155217Y-45071833D01*
X162972261Y-45240257D01*
X162819524Y-45436493D01*
X162701172Y-45655188D01*
X162701169Y-45655197D01*
X162620429Y-45890383D01*
X162579500Y-46135665D01*
X162579500Y-46384334D01*
X162620429Y-46629616D01*
X162701169Y-46864802D01*
X162701172Y-46864811D01*
X162819524Y-47083506D01*
X162819526Y-47083509D01*
X162972262Y-47279744D01*
X163072075Y-47371628D01*
X163145010Y-47438770D01*
X163181001Y-47498658D01*
X163178900Y-47568496D01*
X163145010Y-47621230D01*
X162972261Y-47780257D01*
X162819524Y-47976493D01*
X162701172Y-48195188D01*
X162701169Y-48195197D01*
X162620429Y-48430383D01*
X162579500Y-48675665D01*
X162579500Y-48924334D01*
X146815545Y-48924334D01*
X146726628Y-48869846D01*
X146726627Y-48869845D01*
X146726623Y-48869843D01*
X146546965Y-48795427D01*
X146486610Y-48770427D01*
X146486611Y-48770427D01*
X146338122Y-48734778D01*
X146233994Y-48709779D01*
X146233992Y-48709778D01*
X146233991Y-48709778D01*
X146039855Y-48694500D01*
X146039853Y-48694500D01*
X145910147Y-48694500D01*
X145910145Y-48694500D01*
X145716009Y-48709778D01*
X145463389Y-48770427D01*
X145223376Y-48869843D01*
X145001859Y-49005588D01*
X144804311Y-49174311D01*
X144635588Y-49371859D01*
X144499843Y-49593376D01*
X144400427Y-49833389D01*
X144339778Y-50086009D01*
X144319396Y-50345000D01*
X142630604Y-50345000D01*
X142610221Y-50086006D01*
X142549573Y-49833390D01*
X142460511Y-49618376D01*
X142450156Y-49593376D01*
X142334603Y-49404810D01*
X142314412Y-49371860D01*
X142145689Y-49174311D01*
X141948140Y-49005588D01*
X141726628Y-48869846D01*
X141726627Y-48869845D01*
X141726623Y-48869843D01*
X141546965Y-48795427D01*
X141486610Y-48770427D01*
X141486611Y-48770427D01*
X141338122Y-48734778D01*
X141233994Y-48709779D01*
X141233992Y-48709778D01*
X141233991Y-48709778D01*
X141039855Y-48694500D01*
X141039853Y-48694500D01*
X140910147Y-48694500D01*
X140910145Y-48694500D01*
X140716009Y-48709778D01*
X140463389Y-48770427D01*
X140223376Y-48869843D01*
X140001859Y-49005588D01*
X139804311Y-49174311D01*
X139635588Y-49371859D01*
X139499843Y-49593376D01*
X139400427Y-49833389D01*
X139339778Y-50086009D01*
X139319396Y-50345000D01*
X135803636Y-50345000D01*
X135785221Y-50111006D01*
X135724573Y-49858390D01*
X135625154Y-49618372D01*
X135489412Y-49396860D01*
X135320689Y-49199311D01*
X135123140Y-49030588D01*
X134901628Y-48894846D01*
X134901627Y-48894845D01*
X134901623Y-48894843D01*
X134735627Y-48826086D01*
X134661610Y-48795427D01*
X134661611Y-48795427D01*
X134523921Y-48762370D01*
X134408994Y-48734779D01*
X134408992Y-48734778D01*
X134408991Y-48734778D01*
X134214855Y-48719500D01*
X134214853Y-48719500D01*
X134085147Y-48719500D01*
X134085145Y-48719500D01*
X133891009Y-48734778D01*
X133638389Y-48795427D01*
X133398376Y-48894843D01*
X133176859Y-49030588D01*
X132979311Y-49199311D01*
X132810588Y-49396859D01*
X132674843Y-49618376D01*
X132575427Y-49858389D01*
X132514778Y-50111009D01*
X132494396Y-50369999D01*
X130805604Y-50369999D01*
X130785221Y-50111006D01*
X130724573Y-49858390D01*
X130625154Y-49618372D01*
X130489412Y-49396860D01*
X130320689Y-49199311D01*
X130123140Y-49030588D01*
X129901628Y-48894846D01*
X129901627Y-48894845D01*
X129901623Y-48894843D01*
X129735627Y-48826086D01*
X129661610Y-48795427D01*
X129661611Y-48795427D01*
X129523921Y-48762370D01*
X129408994Y-48734779D01*
X129408992Y-48734778D01*
X129408991Y-48734778D01*
X129214855Y-48719500D01*
X129214853Y-48719500D01*
X129085147Y-48719500D01*
X129085145Y-48719500D01*
X128891009Y-48734778D01*
X128638389Y-48795427D01*
X128398376Y-48894843D01*
X128176859Y-49030588D01*
X127979311Y-49199311D01*
X127810588Y-49396859D01*
X127674843Y-49618376D01*
X127575427Y-49858389D01*
X127514778Y-50111009D01*
X127494396Y-50370000D01*
X123778636Y-50370000D01*
X123780604Y-50345000D01*
X123760221Y-50086006D01*
X123699573Y-49833390D01*
X123610511Y-49618376D01*
X123600156Y-49593376D01*
X123484603Y-49404810D01*
X123464412Y-49371860D01*
X123295689Y-49174311D01*
X123098140Y-49005588D01*
X122876628Y-48869846D01*
X122876627Y-48869845D01*
X122876623Y-48869843D01*
X122696965Y-48795427D01*
X122636610Y-48770427D01*
X122636611Y-48770427D01*
X122488122Y-48734778D01*
X122383994Y-48709779D01*
X122383992Y-48709778D01*
X122383991Y-48709778D01*
X122189855Y-48694500D01*
X122189853Y-48694500D01*
X122060147Y-48694500D01*
X122060145Y-48694500D01*
X121866009Y-48709778D01*
X121613389Y-48770427D01*
X121373376Y-48869843D01*
X121151859Y-49005588D01*
X120954311Y-49174311D01*
X120785588Y-49371859D01*
X120649843Y-49593376D01*
X120550427Y-49833389D01*
X120489778Y-50086009D01*
X120469396Y-50345000D01*
X118780604Y-50345000D01*
X118760221Y-50086006D01*
X118699573Y-49833390D01*
X118610511Y-49618376D01*
X118600156Y-49593376D01*
X118484603Y-49404810D01*
X118464412Y-49371860D01*
X118295689Y-49174311D01*
X118098140Y-49005588D01*
X117876628Y-48869846D01*
X117876627Y-48869845D01*
X117876623Y-48869843D01*
X117696965Y-48795427D01*
X117636610Y-48770427D01*
X117636611Y-48770427D01*
X117488122Y-48734778D01*
X117383994Y-48709779D01*
X117383992Y-48709778D01*
X117383991Y-48709778D01*
X117189855Y-48694500D01*
X117189853Y-48694500D01*
X117060147Y-48694500D01*
X117060145Y-48694500D01*
X116866009Y-48709778D01*
X116613389Y-48770427D01*
X116373376Y-48869843D01*
X116151859Y-49005588D01*
X115954311Y-49174311D01*
X115785588Y-49371859D01*
X115649843Y-49593376D01*
X115550427Y-49833389D01*
X115489778Y-50086009D01*
X115469396Y-50345000D01*
X49050737Y-50345000D01*
X49050101Y-42698177D01*
X49050696Y-42689606D01*
X49050931Y-42687917D01*
X49050934Y-42687908D01*
X49050097Y-42643109D01*
X49050096Y-42642500D01*
X49050193Y-42637868D01*
X49062012Y-42443804D01*
X49064767Y-42424307D01*
X49067947Y-42410078D01*
X49105546Y-42241806D01*
X49111355Y-42222988D01*
X49180517Y-42049249D01*
X49189225Y-42031601D01*
X49285038Y-41870985D01*
X49296427Y-41854944D01*
X49416459Y-41711534D01*
X49430247Y-41697495D01*
X49571480Y-41574895D01*
X49587306Y-41563225D01*
X49746171Y-41464535D01*
X49763659Y-41455511D01*
X49936134Y-41383228D01*
X49954840Y-41377084D01*
X50136575Y-41333026D01*
X50156019Y-41329921D01*
X50348916Y-41314683D01*
X50353812Y-41314491D01*
X50399883Y-41314524D01*
X50399883Y-41314523D01*
X50408715Y-41314530D01*
X50410208Y-41314411D01*
X241998142Y-41050571D01*
X242006791Y-41051165D01*
X242008021Y-41051335D01*
X242008022Y-41051336D01*
X242008022Y-41051335D01*
X242008023Y-41051336D01*
X242053081Y-41050494D01*
X242053173Y-41050494D01*
X242058063Y-41050598D01*
G37*
%TD.AperFunction*%
%TD*%
M02*
