M48
; DRILL file {KiCad 7.0.7} date Mon Sep 30 16:59:30 2024
; FORMAT={-:-/ absolute / inch / decimal}
; #@! TF.CreationDate,2024-09-30T16:59:30+02:00
; #@! TF.GenerationSoftware,Kicad,Pcbnew,7.0.7
; #@! TF.FileFunction,Plated,1,4,PTH
FMAT,2
INCH
; #@! TA.AperFunction,Plated,PTH,ViaDrill
T1C0.0118
; #@! TA.AperFunction,Plated,PTH,ViaDrill
T2C0.0157
; #@! TA.AperFunction,Plated,PTH,ComponentDrill
T3C0.0197
; #@! TA.AperFunction,Plated,PTH,ComponentDrill
T4C0.0394
; #@! TA.AperFunction,Plated,PTH,ComponentDrill
T5C0.0472
; #@! TA.AperFunction,Plated,PTH,ComponentDrill
T6C0.0512
; #@! TA.AperFunction,Plated,PTH,ComponentDrill
T7C0.0732
; #@! TA.AperFunction,Plated,PTH,ComponentDrill
T8C0.1260
%
G90
G05
T1
X2.2933Y-2.1112
X2.2933Y-2.1703
X2.3425Y-2.1112
X2.3425Y-2.1703
X2.4281Y-2.1112
X2.4281Y-2.1703
X2.4774Y-2.1112
X2.4774Y-2.1703
X2.7461Y-3.8203
X2.7461Y-3.8695
X2.8051Y-3.8203
X2.8051Y-3.8695
X2.8327Y-4.2023
X2.8327Y-4.2712
X2.9016Y-4.2023
X2.9016Y-4.2712
X3.2185Y-4.124
X3.2185Y-4.1732
X3.2185Y-4.2224
X3.4646Y-3.7992
X3.4646Y-3.8484
X3.5236Y-3.7992
X3.5236Y-3.8484
X3.5973Y-4.2048
X3.5973Y-4.2737
X3.6662Y-4.2048
X3.6662Y-4.2737
X3.8209Y-2.4823
X3.8219Y-2.4272
X3.8701Y-2.4823
X3.8711Y-2.4272
X3.8976Y-4.2913
X4.0157Y-4.1142
X4.0945Y-3.8681
X4.0945Y-3.9272
X4.1732Y-3.8681
X4.1732Y-3.9272
X4.2255Y-4.2109
X4.2255Y-4.2798
X4.2944Y-4.2109
X4.2944Y-4.2798
X4.5873Y-2.2366
X4.5873Y-2.2763
X4.5965Y-4.124
X4.5965Y-4.2421
X4.7717Y-3.0354
X4.8209Y-3.0354
X4.8228Y-3.937
X4.8228Y-4.0059
X4.8701Y-3.0354
X4.8917Y-3.937
X4.8917Y-4.0059
X4.9264Y-2.2388
X4.9386Y-4.2131
X4.9386Y-4.282
X4.9596Y-2.7451
X4.9596Y-2.7943
X5.0075Y-4.2131
X5.0075Y-4.282
X5.0187Y-2.7451
X5.0187Y-2.7943
X5.1104Y-2.2334
X5.2343Y-3.0256
X5.2704Y-2.2329
X5.2835Y-3.0256
X5.2953Y-4.1142
X5.2953Y-4.1634
X5.2953Y-4.2126
X5.322Y-2.2339
X5.3327Y-3.0256
X5.498Y-2.7825
X5.498Y-2.8317
X5.5315Y-3.8976
X5.5807Y-3.8484
X5.5807Y-3.8976
X5.6465Y-4.2065
X5.6465Y-4.2754
X5.7154Y-4.2065
X5.7154Y-4.2754
X6.0154Y-2.3065
X6.0433Y-4.1142
X6.0433Y-4.1634
X6.0433Y-4.2126
X6.0646Y-2.3065
X6.0654Y-2.2065
X6.0654Y-2.2557
X6.2992Y-3.8583
X6.2992Y-3.9075
X6.3484Y-3.8583
X6.3484Y-3.9075
X6.3965Y-4.2065
X6.3965Y-4.2754
X6.4654Y-4.2065
X6.4654Y-4.2754
X6.7421Y-4.124
X6.7421Y-4.1732
X6.7421Y-4.2224
X6.8524Y-3.3474
X6.8524Y-3.4065
X6.9016Y-3.3474
X6.9016Y-3.4065
X6.9685Y-3.8583
X6.9685Y-3.9075
X6.999Y-3.2087
X6.999Y-3.2677
X7.0177Y-3.8583
X7.0177Y-3.9075
X7.0482Y-3.2087
X7.0482Y-3.2677
X7.0631Y-4.2048
X7.0631Y-4.2737
X7.0719Y-2.44
X7.0719Y-2.4892
X7.0719Y-2.6004
X7.0719Y-2.6496
X7.1309Y-2.44
X7.1309Y-2.4892
X7.1309Y-2.6004
X7.1309Y-2.6496
X7.132Y-4.2048
X7.132Y-4.2737
X7.1457Y-3.0728
X7.1457Y-3.122
X7.2047Y-3.0728
X7.2047Y-3.122
X7.4114Y-4.1339
X7.4114Y-4.1831
X7.4114Y-4.2323
X7.5846Y-1.6604
X7.5846Y-1.7785
X7.6476Y-3.8681
X7.6476Y-3.9173
X7.6969Y-3.8681
X7.6969Y-3.9173
X7.7465Y-4.2065
X7.7465Y-4.2754
X7.7618Y-1.7785
X7.7815Y-1.6604
X7.8154Y-4.2065
X7.8154Y-4.2754
X7.8406Y-1.6604
X7.8406Y-1.7195
X7.8406Y-1.7785
X7.8996Y-1.6604
X7.9193Y-1.7785
X8.1161Y-1.6604
X8.1161Y-1.7785
X8.1201Y-4.1339
X8.1201Y-4.1831
X8.1201Y-4.2323
X8.3258Y-3.2667
X8.3258Y-3.3258
X8.3563Y-3.8681
X8.3563Y-3.9173
X8.375Y-3.2667
X8.375Y-3.3258
X8.4055Y-3.8681
X8.4055Y-3.9173
X8.4768Y-4.2246
X8.4768Y-4.2935
X8.4833Y-3.4341
X8.4833Y-3.4931
X8.5325Y-3.4341
X8.5325Y-3.4931
X8.5457Y-4.2246
X8.5457Y-4.2935
X8.6407Y-3.5817
X8.6407Y-3.6407
X8.69Y-3.5817
X8.69Y-3.6407
X8.7992Y-4.1339
X8.7992Y-4.1831
X8.7992Y-4.2323
X9.0354Y-3.8583
X9.0354Y-3.9075
X9.0846Y-3.8583
X9.0846Y-3.9075
X9.1465Y-4.2065
X9.1465Y-4.2754
X9.2154Y-4.2065
X9.2154Y-4.2754
X9.466Y-4.2057
X9.466Y-4.2746
X9.5349Y-4.2057
X9.5349Y-4.2746
T2
X2.8002Y-1.939
X2.8002Y-2.0079
X2.8002Y-2.0768
X2.8041Y-1.8061
X2.8041Y-1.875
X2.8668Y-4.2362
X2.8691Y-1.939
X2.8691Y-2.0079
X2.8691Y-2.0768
X2.873Y-1.873
X2.878Y-1.81
X2.927Y-3.8483
X2.938Y-2.0079
X2.938Y-2.0768
X2.9439Y-1.876
X2.9439Y-1.937
X2.9469Y-1.811
X3.0167Y-2.0768
X3.0187Y-2.0098
X3.0197Y-1.94
X3.0226Y-1.877
X3.0236Y-1.813
X3.0974Y-1.9488
X3.0974Y-2.0177
X3.1014Y-1.8159
X3.1014Y-1.8848
X3.1289Y-2.4026
X3.1329Y-2.2697
X3.1329Y-2.3386
X3.1663Y-1.9488
X3.1663Y-2.0177
X3.1703Y-1.8159
X3.1703Y-1.8848
X3.1978Y-2.4026
X3.2018Y-2.2697
X3.2018Y-2.3386
X3.2333Y-1.9449
X3.2333Y-2.0138
X3.2352Y-1.8159
X3.2352Y-1.8848
X3.2648Y-2.3986
X3.2667Y-2.2697
X3.2667Y-2.3386
X3.3022Y-1.9449
X3.3022Y-2.0138
X3.3041Y-1.8159
X3.3041Y-1.8848
X3.3337Y-2.3986
X3.3356Y-2.2697
X3.3356Y-2.3386
X3.3927Y-1.815
X3.3927Y-1.8839
X3.4616Y-1.815
X3.4616Y-1.8839
X3.5266Y-1.815
X3.5266Y-1.8839
X3.5955Y-1.815
X3.5955Y-1.8839
X3.6161Y-2.2116
X3.6161Y-2.2805
X3.6337Y-4.2369
X3.6502Y-3.8526
X3.6763Y-1.8144
X3.6763Y-1.8833
X3.685Y-2.2116
X3.685Y-2.2805
X3.7452Y-1.8144
X3.7452Y-1.8833
X3.752Y-2.2077
X3.752Y-2.2766
X3.8209Y-2.2077
X3.8209Y-2.2766
X3.8997Y-2.211
X3.8997Y-2.2799
X3.9686Y-2.211
X3.9686Y-2.2799
X4.0355Y-2.2071
X4.0355Y-2.276
X4.1044Y-2.2071
X4.1044Y-2.276
X4.1772Y-2.2077
X4.1772Y-2.2766
X4.2461Y-2.2077
X4.2461Y-2.2766
X4.2614Y-4.2434
X4.33Y-3.8565
X4.5531Y-2.5533
X4.6843Y-3.3267
X4.6909Y-3.1959
X4.7512Y-3.3227
X4.8201Y-3.3227
X4.9745Y-4.2449
X5.0027Y-2.5533
X5.0418Y-3.8952
X5.0654Y-3.3212
X5.1343Y-3.3212
X5.1634Y-3.189
X5.2012Y-3.3173
X5.2701Y-3.3173
X5.4794Y-2.5463
X5.5374Y-3.1801
X5.6811Y-4.2388
X5.7429Y-3.8533
X6.0492Y-2.1329
X6.4329Y-4.2412
X6.4986Y-3.8453
X7.0982Y-4.2369
X7.1667Y-3.842
X7.4321Y-3.4281
X7.4911Y-3.3593
X7.4911Y-3.4281
X7.56Y-3.2904
X7.56Y-3.3593
X7.56Y-3.4281
X7.6289Y-3.2116
X7.6289Y-3.2904
X7.6289Y-3.3593
X7.6289Y-3.4281
X7.7569Y-2.0662
X7.7833Y-4.2398
X7.8374Y-2.0678
X7.8559Y-3.8739
X7.9154Y-2.2823
X7.9161Y-2.0678
X7.9183Y-2.1376
X7.9183Y-2.2065
X7.9941Y-2.2823
X7.9941Y-2.3512
X7.997Y-2.1376
X7.997Y-2.2065
X8.0827Y-2.2823
X8.0856Y-2.1376
X8.0856Y-2.2065
X8.1644Y-2.1376
X8.1644Y-2.2065
X8.5114Y-4.2552
X8.5532Y-3.8613
X8.8012Y-1.9107
X8.8012Y-1.9993
X8.8996Y-1.9107
X8.8996Y-1.9993
X8.9882Y-1.7139
X8.9882Y-1.8025
X8.9882Y-1.9107
X8.9882Y-1.9993
X9.1829Y-4.2398
X9.2155Y-3.8549
X9.5011Y-4.2391
T3
X2.1209Y-1.9065
X2.1485Y-1.8397
X2.1485Y-1.9733
X2.2154Y-1.812
X2.2154Y-2.001
X2.2822Y-1.8397
X2.2822Y-1.9733
X2.3098Y-1.9065
X9.1709Y-3.0733
X9.1742Y-1.9065
X9.1985Y-3.0065
X9.1985Y-3.1401
X9.2019Y-1.8397
X9.2019Y-1.9733
X9.2654Y-2.9788
X9.2654Y-3.1678
X9.2687Y-1.812
X9.2687Y-2.001
X9.3322Y-3.0065
X9.3322Y-3.1401
X9.3355Y-1.8397
X9.3355Y-1.9733
X9.3598Y-3.0733
X9.3632Y-1.9065
T4
X6.4598Y-1.8213
X6.4598Y-1.9213
X6.5598Y-1.8213
X6.5598Y-1.9213
X6.6598Y-1.8213
X6.6598Y-1.9213
X6.7598Y-1.8213
X6.7598Y-1.9213
X6.8598Y-1.8213
X6.8598Y-1.9213
X6.9598Y-1.8213
X6.9598Y-1.9213
X7.0598Y-1.8213
X7.0598Y-1.9213
X7.1598Y-1.8213
X7.1598Y-1.9213
T5
X3.4656Y-2.5577
X3.4656Y-2.853
X4.2185Y-2.5625
X4.2185Y-2.8578
T6
X2.6919Y-5.2411
X2.8888Y-5.2411
X3.4252Y-5.2472
X3.622Y-5.2472
X4.1043Y-5.2492
X4.3012Y-5.2492
X4.6112Y-1.9821
X4.8081Y-1.9821
X4.8287Y-5.2502
X5.0256Y-5.2502
X5.0846Y-1.9831
X5.2815Y-1.9831
X5.5413Y-5.252
X5.5502Y-1.9821
X5.7382Y-5.252
X5.747Y-1.9821
X6.2844Y-5.2581
X6.4813Y-5.2581
X6.9606Y-5.26
X7.1575Y-5.26
X7.6535Y-5.2618
X7.8504Y-5.2618
X8.3701Y-1.8354
X8.3858Y-5.2589
X8.5669Y-1.8354
X8.5827Y-5.2589
X9.06Y-5.2581
X9.2569Y-5.2581
T7
X2.4498Y-2.5236
X2.4498Y-2.8976
T8
X2.2154Y-1.9065
X9.2654Y-3.0733
X9.2687Y-1.9065
T0
M30
