%TF.GenerationSoftware,KiCad,Pcbnew,7.0.7*%
%TF.CreationDate,2024-09-30T16:59:32+02:00*%
%TF.ProjectId,control_motor_pcb,636f6e74-726f-46c5-9f6d-6f746f725f70,rev?*%
%TF.SameCoordinates,Original*%
%TF.FileFunction,Paste,Top*%
%TF.FilePolarity,Positive*%
%FSLAX46Y46*%
G04 Gerber Fmt 4.6, Leading zero omitted, Abs format (unit mm)*
G04 Created by KiCad (PCBNEW 7.0.7) date 2024-09-30 16:59:32*
%MOMM*%
%LPD*%
G01*
G04 APERTURE LIST*
G04 Aperture macros list*
%AMRoundRect*
0 Rectangle with rounded corners*
0 $1 Rounding radius*
0 $2 $3 $4 $5 $6 $7 $8 $9 X,Y pos of 4 corners*
0 Add a 4 corners polygon primitive as box body*
4,1,4,$2,$3,$4,$5,$6,$7,$8,$9,$2,$3,0*
0 Add four circle primitives for the rounded corners*
1,1,$1+$1,$2,$3*
1,1,$1+$1,$4,$5*
1,1,$1+$1,$6,$7*
1,1,$1+$1,$8,$9*
0 Add four rect primitives between the rounded corners*
20,1,$1+$1,$2,$3,$4,$5,0*
20,1,$1+$1,$4,$5,$6,$7,0*
20,1,$1+$1,$6,$7,$8,$9,0*
20,1,$1+$1,$8,$9,$2,$3,0*%
G04 Aperture macros list end*
%ADD10RoundRect,0.250000X-1.000000X-0.650000X1.000000X-0.650000X1.000000X0.650000X-1.000000X0.650000X0*%
%ADD11RoundRect,0.250000X0.375000X0.625000X-0.375000X0.625000X-0.375000X-0.625000X0.375000X-0.625000X0*%
%ADD12RoundRect,0.250000X-0.450000X0.262500X-0.450000X-0.262500X0.450000X-0.262500X0.450000X0.262500X0*%
%ADD13R,1.500000X1.600000*%
%ADD14RoundRect,0.150000X-0.150000X0.587500X-0.150000X-0.587500X0.150000X-0.587500X0.150000X0.587500X0*%
%ADD15RoundRect,0.112500X-0.112500X0.187500X-0.112500X-0.187500X0.112500X-0.187500X0.112500X0.187500X0*%
%ADD16RoundRect,0.250000X-0.262500X-0.450000X0.262500X-0.450000X0.262500X0.450000X-0.262500X0.450000X0*%
%ADD17R,1.500000X2.900000*%
%ADD18R,6.300000X6.500000*%
%ADD19RoundRect,0.250000X0.262500X0.450000X-0.262500X0.450000X-0.262500X-0.450000X0.262500X-0.450000X0*%
%ADD20RoundRect,0.250000X0.450000X-0.262500X0.450000X0.262500X-0.450000X0.262500X-0.450000X-0.262500X0*%
%ADD21R,0.990000X1.250000*%
%ADD22R,1.600000X1.500000*%
%ADD23R,1.320000X1.540000*%
%ADD24RoundRect,0.250000X0.550000X-1.500000X0.550000X1.500000X-0.550000X1.500000X-0.550000X-1.500000X0*%
%ADD25RoundRect,0.250000X0.625000X-0.312500X0.625000X0.312500X-0.625000X0.312500X-0.625000X-0.312500X0*%
G04 APERTURE END LIST*
D10*
%TO.C,D15*%
X117450000Y-43325000D03*
X121450000Y-43325000D03*
%TD*%
D11*
%TO.C,D28*%
X118193113Y-62505472D03*
X115393113Y-62505472D03*
%TD*%
D12*
%TO.C,R18*%
X130500000Y-104587500D03*
X130500000Y-106412500D03*
%TD*%
D13*
%TO.C,U4*%
X172864150Y-101489972D03*
X172864150Y-104029972D03*
X182564150Y-104029972D03*
X182564150Y-101489972D03*
%TD*%
D12*
%TO.C,R10*%
X156000000Y-96925000D03*
X156000000Y-98750000D03*
%TD*%
D14*
%TO.C,Q12*%
X131400000Y-58325000D03*
X129500000Y-58325000D03*
X130450000Y-60200000D03*
%TD*%
D10*
%TO.C,D7*%
X160325000Y-140825000D03*
X164325000Y-140825000D03*
%TD*%
D15*
%TO.C,D29*%
X205538412Y-60854048D03*
X205538412Y-62954048D03*
%TD*%
D13*
%TO.C,U3*%
X190037870Y-101857493D03*
X190037870Y-104397493D03*
X199737870Y-104397493D03*
X199737870Y-101857493D03*
%TD*%
D10*
%TO.C,D8*%
X141325000Y-140825000D03*
X145325000Y-140825000D03*
%TD*%
D16*
%TO.C,R35*%
X128017500Y-77950000D03*
X129842500Y-77950000D03*
%TD*%
D17*
%TO.C,Q6*%
X127711000Y-114175000D03*
D18*
X125425000Y-120675000D03*
D17*
X123139000Y-114175000D03*
%TD*%
%TO.C,Q5*%
X146111000Y-114200000D03*
D18*
X143825000Y-120700000D03*
D17*
X141539000Y-114200000D03*
%TD*%
D12*
%TO.C,R37*%
X135950000Y-72787500D03*
X135950000Y-74612500D03*
%TD*%
D19*
%TO.C,R8*%
X174662500Y-107000000D03*
X172837500Y-107000000D03*
%TD*%
D12*
%TO.C,R41*%
X123700000Y-72950000D03*
X123700000Y-74775000D03*
%TD*%
D20*
%TO.C,R38*%
X135950000Y-61612500D03*
X135950000Y-59787500D03*
%TD*%
D19*
%TO.C,R51*%
X97592165Y-101683163D03*
X95767165Y-101683163D03*
%TD*%
D21*
%TO.C,D2*%
X78320000Y-72225000D03*
X78320000Y-67125000D03*
X69980000Y-67125000D03*
X69980000Y-72225000D03*
%TD*%
D12*
%TO.C,R22*%
X84000000Y-97087500D03*
X84000000Y-98912500D03*
%TD*%
%TO.C,R3*%
X220500000Y-104487500D03*
X220500000Y-106312500D03*
%TD*%
%TO.C,R16*%
X118500000Y-97587500D03*
X118500000Y-99412500D03*
%TD*%
D19*
%TO.C,R50*%
X114718152Y-101335358D03*
X112893152Y-101335358D03*
%TD*%
D12*
%TO.C,R9*%
X185250000Y-103837500D03*
X185250000Y-105662500D03*
%TD*%
D19*
%TO.C,R14*%
X138325000Y-106837500D03*
X136500000Y-106837500D03*
%TD*%
D22*
%TO.C,U13*%
X118180000Y-75200000D03*
X120720000Y-75200000D03*
X120720000Y-65500000D03*
X118180000Y-65500000D03*
%TD*%
D12*
%TO.C,R30*%
X77750000Y-104372500D03*
X77750000Y-106197500D03*
%TD*%
D20*
%TO.C,R34*%
X147200000Y-67012500D03*
X147200000Y-65187500D03*
%TD*%
D19*
%TO.C,R2*%
X209912050Y-107438538D03*
X208087050Y-107438538D03*
%TD*%
D11*
%TO.C,D18*%
X204203773Y-98365717D03*
X201403773Y-98365717D03*
%TD*%
D10*
%TO.C,D5*%
X194900000Y-141025000D03*
X198900000Y-141025000D03*
%TD*%
D19*
%TO.C,R48*%
X150608568Y-101617180D03*
X148783568Y-101617180D03*
%TD*%
D14*
%TO.C,Q11*%
X143400000Y-58075000D03*
X141500000Y-58075000D03*
X142450000Y-59950000D03*
%TD*%
D19*
%TO.C,R45*%
X204100816Y-101689126D03*
X202275816Y-101689126D03*
%TD*%
D17*
%TO.C,Q1*%
X218036000Y-114150000D03*
D18*
X215750000Y-120650000D03*
D17*
X213464000Y-114150000D03*
%TD*%
D22*
%TO.C,U2*%
X141971285Y-75035759D03*
X144511285Y-75035759D03*
X144511285Y-65335759D03*
X141971285Y-65335759D03*
%TD*%
D13*
%TO.C,U6*%
X136624123Y-101612479D03*
X136624123Y-104152479D03*
X146324123Y-104152479D03*
X146324123Y-101612479D03*
%TD*%
D10*
%TO.C,D11*%
X87475000Y-140750000D03*
X91475000Y-140750000D03*
%TD*%
D23*
%TO.C,D1*%
X208675000Y-59495000D03*
X212575000Y-59495000D03*
%TD*%
D17*
%TO.C,Q10*%
X74286000Y-114000000D03*
D18*
X72000000Y-120500000D03*
D17*
X69714000Y-114000000D03*
%TD*%
D24*
%TO.C,C2*%
X194700000Y-49855000D03*
X194700000Y-44455000D03*
%TD*%
D10*
%TO.C,D14*%
X129750000Y-43425000D03*
X133750000Y-43425000D03*
%TD*%
D13*
%TO.C,U7*%
X118359433Y-102114716D03*
X118359433Y-104654716D03*
X128059433Y-104654716D03*
X128059433Y-102114716D03*
%TD*%
D17*
%TO.C,Q2*%
X199886000Y-114055000D03*
D18*
X197600000Y-120555000D03*
D17*
X195314000Y-114055000D03*
%TD*%
D13*
%TO.C,U1*%
X208168199Y-101877439D03*
X208168199Y-104417439D03*
X217868199Y-104417439D03*
X217868199Y-101877439D03*
%TD*%
D20*
%TO.C,R40*%
X123700000Y-67362500D03*
X123700000Y-65537500D03*
%TD*%
D19*
%TO.C,R44*%
X222090691Y-101944526D03*
X220265691Y-101944526D03*
%TD*%
D11*
%TO.C,D19*%
X186928118Y-97530702D03*
X184128118Y-97530702D03*
%TD*%
D12*
%TO.C,R32*%
X147200000Y-73037500D03*
X147200000Y-74862500D03*
%TD*%
%TO.C,R24*%
X96250000Y-104337500D03*
X96250000Y-106162500D03*
%TD*%
%TO.C,R28*%
X65636910Y-96675101D03*
X65636910Y-98500101D03*
%TD*%
D11*
%TO.C,D27*%
X129957704Y-62764799D03*
X127157704Y-62764799D03*
%TD*%
D24*
%TO.C,C1*%
X203836346Y-49804023D03*
X203836346Y-44404023D03*
%TD*%
D12*
%TO.C,R15*%
X149000000Y-104337500D03*
X149000000Y-106162500D03*
%TD*%
%TO.C,R25*%
X225345000Y-96695000D03*
X225345000Y-98520000D03*
%TD*%
D10*
%TO.C,D3*%
X230700000Y-140825000D03*
X234700000Y-140825000D03*
%TD*%
D11*
%TO.C,D20*%
X169799799Y-97692102D03*
X166999799Y-97692102D03*
%TD*%
D17*
%TO.C,Q9*%
X235411000Y-114075000D03*
D18*
X233125000Y-120575000D03*
D17*
X230839000Y-114075000D03*
%TD*%
D12*
%TO.C,R19*%
X100250000Y-96687500D03*
X100250000Y-98512500D03*
%TD*%
D10*
%TO.C,D6*%
X177550000Y-140875000D03*
X181550000Y-140875000D03*
%TD*%
D19*
%TO.C,R20*%
X101912500Y-107350000D03*
X100087500Y-107350000D03*
%TD*%
%TO.C,R17*%
X120162500Y-107837500D03*
X118337500Y-107837500D03*
%TD*%
D14*
%TO.C,Q13*%
X119900000Y-58075000D03*
X118000000Y-58075000D03*
X118950000Y-59950000D03*
%TD*%
D12*
%TO.C,R4*%
X190100000Y-97070000D03*
X190100000Y-98895000D03*
%TD*%
D11*
%TO.C,D17*%
X222046254Y-98077754D03*
X219246254Y-98077754D03*
%TD*%
D19*
%TO.C,R52*%
X79210301Y-101557330D03*
X77385301Y-101557330D03*
%TD*%
%TO.C,R29*%
X67162500Y-107535000D03*
X65337500Y-107535000D03*
%TD*%
D11*
%TO.C,D24*%
X97614390Y-98060366D03*
X94814390Y-98060366D03*
%TD*%
D19*
%TO.C,R5*%
X191762500Y-107320000D03*
X189937500Y-107320000D03*
%TD*%
D20*
%TO.C,R36*%
X135950000Y-67112500D03*
X135950000Y-65287500D03*
%TD*%
D13*
%TO.C,U9*%
X83868059Y-101687762D03*
X83868059Y-104227762D03*
X93568059Y-104227762D03*
X93568059Y-101687762D03*
%TD*%
D10*
%TO.C,D12*%
X68800000Y-140600000D03*
X72800000Y-140600000D03*
%TD*%
D25*
%TO.C,R53*%
X97559644Y-71386427D03*
X97559644Y-68461427D03*
%TD*%
D13*
%TO.C,U5*%
X155900000Y-101480000D03*
X155900000Y-104020000D03*
X165600000Y-104020000D03*
X165600000Y-101480000D03*
%TD*%
D19*
%TO.C,R43*%
X239215321Y-101302795D03*
X237390321Y-101302795D03*
%TD*%
D20*
%TO.C,R42*%
X123700000Y-61862500D03*
X123700000Y-60037500D03*
%TD*%
D22*
%TO.C,U12*%
X129921375Y-75033018D03*
X132461375Y-75033018D03*
X132461375Y-65333018D03*
X129921375Y-65333018D03*
%TD*%
D19*
%TO.C,R47*%
X169882143Y-101183052D03*
X168057143Y-101183052D03*
%TD*%
D17*
%TO.C,Q7*%
X109811000Y-113925000D03*
D18*
X107525000Y-120425000D03*
D17*
X105239000Y-113925000D03*
%TD*%
D11*
%TO.C,D21*%
X150564131Y-97832245D03*
X147764131Y-97832245D03*
%TD*%
D12*
%TO.C,R1*%
X208250000Y-97237500D03*
X208250000Y-99062500D03*
%TD*%
D11*
%TO.C,D23*%
X114758622Y-97955000D03*
X111958622Y-97955000D03*
%TD*%
%TO.C,D26*%
X141996466Y-62640509D03*
X139196466Y-62640509D03*
%TD*%
%TO.C,D25*%
X79273817Y-97838379D03*
X76473817Y-97838379D03*
%TD*%
%TO.C,D16*%
X239156210Y-97770868D03*
X236356210Y-97770868D03*
%TD*%
D19*
%TO.C,R46*%
X186864780Y-101276992D03*
X185039780Y-101276992D03*
%TD*%
%TO.C,R23*%
X85662500Y-107250000D03*
X83837500Y-107250000D03*
%TD*%
D10*
%TO.C,D9*%
X123525000Y-140650000D03*
X127525000Y-140650000D03*
%TD*%
D13*
%TO.C,U10*%
X225220282Y-101693679D03*
X225220282Y-104233679D03*
X234920282Y-104233679D03*
X234920282Y-101693679D03*
%TD*%
D10*
%TO.C,D10*%
X104550000Y-140400000D03*
X108550000Y-140400000D03*
%TD*%
D13*
%TO.C,U8*%
X100258894Y-101566657D03*
X100258894Y-104106657D03*
X109958894Y-104106657D03*
X109958894Y-101566657D03*
%TD*%
D17*
%TO.C,Q4*%
X165036000Y-114200000D03*
D18*
X162750000Y-120700000D03*
D17*
X160464000Y-114200000D03*
%TD*%
D12*
%TO.C,R13*%
X136750000Y-97000000D03*
X136750000Y-98825000D03*
%TD*%
D17*
%TO.C,Q8*%
X92486000Y-114075000D03*
D18*
X90200000Y-120575000D03*
D17*
X87914000Y-114075000D03*
%TD*%
%TO.C,Q3*%
X181511000Y-113900000D03*
D18*
X179225000Y-120400000D03*
D17*
X176939000Y-113900000D03*
%TD*%
D16*
%TO.C,R39*%
X116037500Y-78112500D03*
X117862500Y-78112500D03*
%TD*%
D12*
%TO.C,R7*%
X173000000Y-96587500D03*
X173000000Y-98412500D03*
%TD*%
%TO.C,R6*%
X202350000Y-104407500D03*
X202350000Y-106232500D03*
%TD*%
D10*
%TO.C,D4*%
X213750000Y-140925000D03*
X217750000Y-140925000D03*
%TD*%
D19*
%TO.C,R11*%
X157662500Y-107337500D03*
X155837500Y-107337500D03*
%TD*%
D12*
%TO.C,R27*%
X237600000Y-104507500D03*
X237600000Y-106332500D03*
%TD*%
D10*
%TO.C,D13*%
X141700000Y-43350000D03*
X145700000Y-43350000D03*
%TD*%
D12*
%TO.C,R21*%
X113000000Y-104187500D03*
X113000000Y-106012500D03*
%TD*%
%TO.C,R12*%
X168250000Y-104425000D03*
X168250000Y-106250000D03*
%TD*%
D20*
%TO.C,R33*%
X147450000Y-61362500D03*
X147450000Y-59537500D03*
%TD*%
D11*
%TO.C,D22*%
X132872788Y-98855200D03*
X130072788Y-98855200D03*
%TD*%
D16*
%TO.C,R31*%
X140037500Y-77950000D03*
X141862500Y-77950000D03*
%TD*%
D19*
%TO.C,R49*%
X132782366Y-102048356D03*
X130957366Y-102048356D03*
%TD*%
%TO.C,R26*%
X227012500Y-107420000D03*
X225187500Y-107420000D03*
%TD*%
D13*
%TO.C,U11*%
X65394609Y-101737776D03*
X65394609Y-104277776D03*
X75094609Y-104277776D03*
X75094609Y-101737776D03*
%TD*%
M02*
